<svg width="209" height="195" viewBox="0 0 209 195" fill="none" xmlns="http://www.w3.org/2000/svg">
<path fill-rule="evenodd" clip-rule="evenodd" d="M169.086 156.104C154.119 170.985 134.458 180.217 113.449 182.229C92.4412 184.241 71.3853 178.907 53.8674 167.136C36.3495 155.366 23.4529 137.886 17.3738 117.674C11.2947 97.4615 12.409 75.7668 20.5269 56.284C28.6449 36.8013 43.2645 20.7351 61.8961 10.8217C80.5278 0.9082 102.019 -2.23962 122.711 1.91426C143.402 6.06815 162.015 17.2669 175.378 33.6034C188.741 49.9399 196.029 70.404 196 91.5107C195.984 103.519 193.598 115.406 188.979 126.49C184.361 137.574 177.601 147.638 169.086 156.104Z" fill="white"/>
<path fill-rule="evenodd" clip-rule="evenodd" d="M104.5 172.41C120.496 172.398 136.129 167.642 149.423 158.745C162.717 149.848 173.075 137.209 179.188 122.426C185.301 107.642 186.893 91.3779 183.765 75.689C180.637 60.0002 172.928 45.5912 161.612 34.2835C150.297 22.9758 135.884 15.2771 120.194 12.1607C104.505 9.04431 88.2438 10.6501 73.4667 16.775C58.6896 22.9 46.06 33.2692 37.1744 46.5717C28.2889 59.8742 23.5463 75.5128 23.5463 91.5106C23.591 112.964 32.1363 133.525 47.3102 148.688C62.4841 163.852 83.0493 172.382 104.5 172.41V172.41Z" fill="#C73E20"/>
<path fill-rule="evenodd" clip-rule="evenodd" d="M104.5 170.005C86.3014 170.04 68.654 163.761 54.5667 152.239C40.4794 140.716 30.8245 124.663 27.2481 106.818C23.6717 88.9718 26.3953 70.4378 34.9545 54.3757C43.5137 38.3136 57.3785 25.7179 74.185 18.7362C90.9915 11.7546 109.699 10.8192 127.118 16.0896C144.537 21.3599 159.589 32.5097 169.707 47.638C179.826 62.7662 184.384 80.936 182.605 99.0496C180.826 117.163 172.82 134.099 159.953 146.969C152.682 154.272 144.04 160.067 134.524 164.02C125.008 167.973 114.804 170.007 104.5 170.005ZM187.795 91.5103C187.83 72.2024 181.168 53.4799 168.945 38.5347C156.722 23.5896 139.694 13.347 120.765 9.55326C101.835 5.75949 82.1762 8.64939 65.139 17.7303C48.1017 26.8111 34.741 41.5208 27.3348 59.3515C19.9286 77.1822 18.9353 97.03 24.5243 115.511C30.1133 133.992 41.9385 149.963 57.984 160.7C74.0295 171.437 93.3018 176.275 112.515 174.391C131.729 172.506 149.694 164.015 163.349 150.366C171.097 142.648 177.246 133.477 181.441 123.377C185.636 113.276 187.796 102.447 187.795 91.5103V91.5103Z" fill="#33001A"/>
<path fill-rule="evenodd" clip-rule="evenodd" d="M132.659 20.9684C138.497 23.9026 143.987 27.4831 149.027 31.6425C153.646 35.4818 156.936 40.8189 161.682 44.2996C161.85 44.3896 162.04 44.4293 162.23 44.414C162.42 44.3987 162.601 44.329 162.753 44.2133C162.904 44.0976 163.019 43.9407 163.083 43.7615C163.148 43.5822 163.159 43.3882 163.117 43.2026C160.881 37.6124 155.312 33.4989 150.714 29.8705C145.39 25.6491 139.271 22.5427 132.722 20.7363C132.722 20.7363 132.595 20.9262 132.659 20.9684Z" fill="#33001A"/>
<path fill-rule="evenodd" clip-rule="evenodd" d="M163.538 48.139C163.876 50.2486 164.994 53.6027 167.209 54.2144C167.36 54.253 167.52 54.2303 167.654 54.1512C167.788 54.0722 167.886 53.9433 167.926 53.7925C168.474 51.683 166.027 49.3204 165.078 47.464C164.614 46.578 163.391 47.2531 163.538 48.139Z" fill="#33001A"/>
<path fill-rule="evenodd" clip-rule="evenodd" d="M29.1991 87.7558C27.2164 103.535 34.0505 126.887 46.6217 137.287C46.723 137.39 46.8586 137.453 47.0027 137.462C47.1469 137.472 47.2897 137.429 47.4041 137.341C47.5184 137.252 47.5964 137.125 47.6233 136.983C47.6501 136.841 47.624 136.694 47.5498 136.57C38.3112 120.77 31.9834 106.109 29.8741 87.7558C29.9039 87.6979 29.9184 87.6333 29.9161 87.5683C29.9137 87.5032 29.8947 87.4398 29.8608 87.3842C29.8269 87.3286 29.7793 87.2827 29.7225 87.2508C29.6658 87.2189 29.6017 87.2021 29.5366 87.2021C29.4715 87.2021 29.4075 87.2189 29.3507 87.2508C29.294 87.2827 29.2463 87.3286 29.2124 87.3842C29.1786 87.4398 29.1595 87.5032 29.1572 87.5683C29.1549 87.6333 29.1693 87.6979 29.1991 87.7558V87.7558Z" fill="#33001A"/>
<path fill-rule="evenodd" clip-rule="evenodd" d="M51.7683 142.139C49.0263 144.248 58.518 153.277 61.26 152.517C64.0021 151.758 59.1508 148.298 58.518 147.855C57.1681 146.779 55.8814 145.746 54.5948 144.501C53.7511 143.784 53.055 142.603 52.0847 142.096C52.0352 142.066 51.9767 142.054 51.9191 142.061C51.8614 142.069 51.8082 142.096 51.7683 142.139V142.139Z" fill="#33001A"/>
<path fill-rule="evenodd" clip-rule="evenodd" d="M47.6974 43.0975C52.2686 37.5568 57.6858 32.7726 63.7489 28.9216C69.9502 25.3143 94.4599 14.6402 100.387 19.471C100.155 19.682 73.6414 28.7318 66.7652 33.3727C61.3763 37.2102 56.5242 41.7507 52.3378 46.8735C48.6255 51.6832 44.7655 60.9862 41.5806 58.9399C35.8644 57.3789 46.1577 45.1437 47.6974 43.0975Z" fill="white"/>
<path fill-rule="evenodd" clip-rule="evenodd" d="M41.4751 66.2595C40.2148 68.686 38.6481 70.9405 36.8136 72.9678C34.4934 72.0607 35.9488 66.3017 36.5816 64.5297C37.2144 62.7577 37.805 63.2007 39.3447 63.3906C41.3485 63.5383 42.2766 63.5383 41.4751 66.2595Z" fill="white"/>
<path fill-rule="evenodd" clip-rule="evenodd" d="M171.49 120.094C168.165 127.503 163.527 134.25 157.801 140.008C151.769 145.746 127.449 163.044 119.539 160.006C119.75 159.732 146.453 143.847 153.709 136.19C158.678 130.653 162.756 124.375 165.795 117.584C168.348 111.256 169.803 99.2313 173.515 100.37C179.948 100.012 172.418 117.711 171.49 120.094Z" fill="#B92006"/>
<path fill-rule="evenodd" clip-rule="evenodd" d="M54.9533 65.5213C53.4467 66.1318 51.8328 66.4331 50.2075 66.4073C48.5821 66.4331 46.9682 66.1318 45.4616 65.5213C44.7455 65.3061 44.11 64.8819 43.6365 64.3031C43.163 63.7243 42.8731 63.0173 42.804 62.2727C42.8811 61.5356 43.1746 60.8378 43.6475 60.2672C44.1205 59.6966 44.7517 59.2787 45.4616 59.0662C46.9682 58.4558 48.5821 58.1545 50.2075 58.1802C51.8328 58.1545 53.4467 58.4558 54.9533 59.0662C55.6694 59.2815 56.3049 59.7057 56.7784 60.2845C57.2519 60.8633 57.5418 61.5703 57.611 62.3149C57.5339 63.052 57.2404 63.7498 56.7674 64.3204C56.2945 64.891 55.6633 65.3088 54.9533 65.5213Z" fill="#D3799F"/>
<path fill-rule="evenodd" clip-rule="evenodd" d="M163.897 65.5213C160.843 66.7019 157.459 66.7019 154.405 65.5213C153.689 65.306 153.054 64.8818 152.58 64.303C152.107 63.7242 151.817 63.0172 151.748 62.2726C151.818 61.5458 152.099 60.8554 152.556 60.2859C153.013 59.7163 153.627 59.2925 154.321 59.0662C157.375 57.8855 160.759 57.8855 163.813 59.0662C164.529 59.2814 165.164 59.7056 165.638 60.2844C166.111 60.8632 166.401 61.5702 166.47 62.3148C166.4 63.0416 166.118 63.7321 165.661 64.3016C165.204 64.8711 164.591 65.295 163.897 65.5213V65.5213Z" fill="#D3799F"/>
<g clip-path="url(#clip0_593_13654)">
<path d="M62 100.679C84.1765 100.679 133.647 127.722 145.588 100.679" stroke="black" stroke-width="3" stroke-linecap="round" stroke-linejoin="round"/>
<path fill-rule="evenodd" clip-rule="evenodd" d="M78.8009 34.3559C84.9549 34.1915 90.5643 44.8748 91.3812 58.2153C92.1981 71.5558 87.8686 82.513 81.7418 82.6774C75.615 82.8417 70.0056 72.131 69.1887 58.7906C68.3718 45.4501 72.6742 34.4928 78.8009 34.3559Z" fill="white"/>
<path fill-rule="evenodd" clip-rule="evenodd" d="M83.2394 35.7529C85.2544 35.5612 87.3511 39.4236 88.9305 45.4501C88.5746 45.0957 88.1476 44.8219 87.678 44.6471C87.2083 44.4722 86.707 44.4005 86.2075 44.4365C85.671 44.5262 85.1573 44.7214 84.6959 45.0109C84.2344 45.3005 83.8342 45.6786 83.5181 46.1238C83.2019 46.569 82.9762 47.0725 82.8536 47.6056C82.731 48.1386 82.7141 48.6907 82.8037 49.2303C82.818 50.3324 83.2633 51.3844 84.0431 52.1586C84.8228 52.9328 85.8744 53.3668 86.9699 53.3667C87.679 53.2841 88.3492 52.9971 88.9 52.5403C89.4507 52.0835 89.8584 51.4763 90.0742 50.7918C90.4826 53.1476 90.8094 55.6677 91.0272 58.3249C92.1164 71.0627 90.3737 81.6364 87.1605 81.9104C83.9474 82.1843 80.4347 72.0762 79.3455 59.3932C78.2563 46.7102 79.999 36.0269 83.2394 35.7529Z" fill="black"/>
<path fill-rule="evenodd" clip-rule="evenodd" d="M128.714 33.1507C134.786 34.0547 138.516 45.6968 137.019 58.8455C135.521 71.9942 129.449 82.157 123.404 81.2805C117.359 80.4039 113.601 68.8714 115.071 55.5857C116.542 42.3 122.641 32.2468 128.714 33.1507Z" fill="white"/>
<path fill-rule="evenodd" clip-rule="evenodd" d="M123.131 34.4653C125.146 34.6844 126.481 38.8756 126.835 45.0938C126.555 44.6749 126.189 44.3212 125.761 44.0566C125.334 43.792 124.855 43.6226 124.357 43.5598C123.261 43.5301 122.198 43.9362 121.397 44.69C120.597 45.4438 120.124 46.4845 120.082 47.5866C119.881 48.6714 120.11 49.7924 120.721 50.709C121.332 51.6257 122.275 52.265 123.349 52.4899C124.062 52.5359 124.774 52.3808 125.404 52.042C126.034 51.7032 126.558 51.1943 126.916 50.5724C126.916 52.9556 126.671 55.5032 126.399 58.1329C124.956 70.8433 121.198 80.8692 117.958 80.5131C114.717 80.157 113.301 69.5559 114.717 56.8181C116.133 44.0803 119.918 34.0818 123.131 34.4653Z" fill="black"/>
<path fill-rule="evenodd" clip-rule="evenodd" d="M78.338 37.4787C77.4768 37.6294 76.6642 37.9864 75.969 38.5197C74.9836 39.2486 74.1662 40.183 73.5728 41.259C71.2883 46.5459 70.2537 52.2938 70.5503 58.051C70.5503 59.6672 73.1371 74.2677 73.0826 74.4868C70.1418 74.3499 67.8545 60.4068 67.6366 58.2701C66.8755 51.9363 67.7476 45.512 70.169 39.6154C70.9439 37.9585 72.0904 36.505 73.5183 35.3694C74.7123 34.4122 76.1261 33.7717 77.6301 33.5067H78.6376C79.6267 33.4369 80.6193 33.5769 81.5512 33.9176C82.5527 34.3151 83.475 34.8903 84.2742 35.616C85.3362 36.8213 89.7202 42.2725 86.5615 42.793C84.3559 44.1079 84.9549 41.752 81.6329 38.5744C81.2034 38.1897 80.7041 37.8921 80.1625 37.6979C79.7197 37.5284 79.2468 37.4538 78.7737 37.4787C78.6293 37.4574 78.4825 37.4574 78.338 37.4787Z" fill="black"/>
<path fill-rule="evenodd" clip-rule="evenodd" d="M127.788 36.109C128.644 36.2645 129.449 36.6316 130.13 37.1773C131.123 37.9052 131.95 38.8394 132.553 39.9166C134.83 45.1854 135.846 50.918 135.521 56.6538C135.521 58.27 132.962 72.8706 133.016 73.0897C135.957 72.9253 138.244 59.0096 138.462 56.873C139.252 50.5665 138.417 44.1617 136.039 38.273C135.23 36.5752 134.036 35.0926 132.553 33.9449C131.366 32.9611 129.952 32.2924 128.441 32H127.352C126.423 32.0074 125.502 32.1742 124.629 32.4931C123.617 32.881 122.691 33.4676 121.906 34.2188C120.844 35.4241 116.46 40.8754 119.619 41.3685C121.824 42.7107 121.225 40.3549 124.52 37.1499C124.967 36.7747 125.473 36.4783 126.018 36.2733C126.454 36.1164 126.916 36.0421 127.379 36.0542L127.788 36.109Z" fill="black"/>
</g>
<g clip-path="url(#clip1_593_13654)">
<path fill-rule="evenodd" clip-rule="evenodd" d="M198.764 154.612H201.209C202.71 154.605 204.18 155.031 205.445 155.839C206.71 156.648 207.716 157.805 208.342 159.171C208.968 160.538 209.187 162.056 208.975 163.544C208.762 165.032 208.126 166.427 207.142 167.563C207.012 167.71 206.881 167.873 206.734 168.02L182.025 192.714C180.561 194.179 178.577 195.002 176.508 195.002C174.439 195.002 172.455 194.179 170.991 192.714L146.282 167.955C145.195 166.861 144.455 165.469 144.155 163.955C143.856 162.44 144.011 160.871 144.6 159.444C145.189 158.017 146.186 156.797 147.465 155.937C148.745 155.078 150.25 154.616 151.791 154.612H155.181V137.807C155.185 135.735 156.01 133.749 157.473 132.285C158.937 130.822 160.92 130 162.988 130H190.957C193.025 130 195.008 130.822 196.472 132.285C197.936 133.749 198.76 135.735 198.764 137.807V154.612Z" fill="white"/>
<path fill-rule="evenodd" clip-rule="evenodd" d="M162.988 137.823H190.957V162.435H201.209L176.5 187.193L151.791 162.435H162.988V137.823Z" fill="#C73E20"/>
<path fill-rule="evenodd" clip-rule="evenodd" d="M162.988 136.353C162.603 136.353 162.235 136.506 161.962 136.779C161.69 137.051 161.538 137.421 161.538 137.807V161.03H151.758C151.375 161.036 151.008 161.188 150.731 161.455C150.458 161.73 150.304 162.103 150.304 162.492C150.304 162.881 150.458 163.253 150.731 163.529L175.473 188.222C175.752 188.489 176.123 188.638 176.508 188.638C176.894 188.638 177.264 188.489 177.543 188.222L202.236 163.464C202.431 163.261 202.561 163.005 202.613 162.729C202.664 162.452 202.633 162.167 202.523 161.908C202.414 161.649 202.231 161.427 201.998 161.271C201.764 161.115 201.49 161.032 201.209 161.03H192.408V137.807C192.408 137.421 192.255 137.051 191.983 136.779C191.711 136.506 191.342 136.353 190.957 136.353H162.988ZM189.507 162.484C189.504 162.676 189.54 162.867 189.612 163.045C189.684 163.223 189.791 163.385 189.926 163.522C190.061 163.659 190.221 163.767 190.398 163.841C190.575 163.915 190.765 163.954 190.957 163.954H197.786L176.598 185.185L155.409 163.954H163.086C163.278 163.954 163.468 163.915 163.645 163.841C163.822 163.767 163.983 163.659 164.118 163.522C164.252 163.385 164.359 163.223 164.431 163.045C164.503 162.867 164.539 162.676 164.537 162.484V139.276H189.507V162.484Z" fill="#33001A"/>
<path fill-rule="evenodd" clip-rule="evenodd" d="M185.079 158.119C185.079 156.796 185.405 142 186.155 142C186.904 142 187.1 156.796 187.1 158.119C187.1 159.034 187.687 162.921 186.155 162.709C184.541 162.921 185.095 159.099 185.079 158.119Z" fill="#B92006"/>
<path fill-rule="evenodd" clip-rule="evenodd" d="M188.16 164.129C188.583 164.129 189.985 164.619 190.067 165.077C190.067 165.811 188.714 166.122 188.143 166.138C187.573 166.154 187.508 165.762 187.508 165.207C187.508 164.652 187.361 164.113 188.16 164.129Z" fill="#B92006"/>
<path fill-rule="evenodd" clip-rule="evenodd" d="M170.861 142.918L168.709 143.065C168.399 143.065 168.106 143.163 167.813 143.212L167.91 143.065C167.91 143.065 168.008 142.902 168.057 142.836C168.115 142.713 168.148 142.58 168.155 142.445C168.155 142.445 167.796 158.907 167.112 158.907C166.427 158.907 166.215 143.653 166.199 142.445C166.2 142.287 166.234 142.131 166.297 141.987C166.357 141.891 166.422 141.798 166.492 141.71C166.593 141.632 166.703 141.566 166.818 141.514C166.974 141.434 167.138 141.374 167.307 141.334C167.682 141.237 168.064 141.166 168.448 141.122C169.198 141.024 169.948 140.958 170.714 140.909H171.643C173.566 140.828 176.744 140.027 176.696 141.644C176.647 143.261 174.023 142.771 171.806 142.918H170.861Z" fill="white"/>
</g>
<defs>
<clipPath id="clip0_593_13654">
<rect width="87" height="91" fill="white" transform="translate(62 32)"/>
</clipPath>
<clipPath id="clip1_593_13654">
<rect width="65" height="65" fill="white" transform="translate(144 130)"/>
</clipPath>
</defs>
</svg>
