<svg width="209" height="195" viewBox="0 0 209 195" fill="none" xmlns="http://www.w3.org/2000/svg">
<path fill-rule="evenodd" clip-rule="evenodd" d="M169.086 156.104C154.119 170.985 134.458 180.217 113.449 182.229C92.4412 184.241 71.3853 178.907 53.8674 167.136C36.3495 155.366 23.4529 137.886 17.3738 117.674C11.2947 97.4615 12.409 75.7668 20.5269 56.284C28.6449 36.8013 43.2645 20.7351 61.8961 10.8217C80.5278 0.9082 102.019 -2.23962 122.711 1.91426C143.402 6.06815 162.015 17.2669 175.378 33.6034C188.741 49.9399 196.029 70.404 196 91.5107C195.984 103.519 193.598 115.406 188.979 126.49C184.361 137.574 177.601 147.638 169.086 156.104Z" fill="white"/>
<path fill-rule="evenodd" clip-rule="evenodd" d="M104.5 172.41C120.496 172.398 136.129 167.642 149.423 158.745C162.717 149.848 173.075 137.209 179.188 122.426C185.301 107.642 186.893 91.3779 183.765 75.689C180.637 60.0002 172.928 45.5912 161.612 34.2835C150.297 22.9758 135.884 15.2771 120.194 12.1607C104.505 9.04431 88.2438 10.6501 73.4667 16.775C58.6896 22.9 46.06 33.2692 37.1744 46.5717C28.2889 59.8742 23.5463 75.5128 23.5463 91.5106C23.591 112.964 32.1363 133.525 47.3102 148.688C62.4841 163.852 83.0493 172.382 104.5 172.41V172.41Z" fill="#237EE2"/>
<path fill-rule="evenodd" clip-rule="evenodd" d="M104.5 170.005C86.3014 170.04 68.654 163.761 54.5667 152.239C40.4794 140.716 30.8245 124.663 27.2481 106.818C23.6717 88.9718 26.3953 70.4378 34.9545 54.3757C43.5137 38.3136 57.3785 25.7179 74.185 18.7362C90.9915 11.7546 109.699 10.8192 127.118 16.0896C144.537 21.3599 159.589 32.5097 169.707 47.638C179.826 62.7662 184.384 80.936 182.605 99.0496C180.826 117.163 172.821 134.099 159.953 146.969C152.682 154.272 144.04 160.067 134.524 164.02C125.008 167.973 114.805 170.007 104.5 170.005ZM187.795 91.5103C187.83 72.2024 181.168 53.4799 168.945 38.5347C156.722 23.5896 139.694 13.347 120.765 9.55326C101.835 5.75949 82.1763 8.64939 65.139 17.7303C48.1017 26.8111 34.7411 41.5208 27.3349 59.3515C19.9286 77.1822 18.9353 97.03 24.5243 115.511C30.1133 133.992 41.9385 149.963 57.984 160.7C74.0295 171.437 93.3018 176.275 112.515 174.391C131.729 172.506 149.694 164.015 163.349 150.366C171.097 142.648 177.246 133.477 181.441 123.377C185.636 113.276 187.796 102.447 187.795 91.5103V91.5103Z" fill="#33001A"/>
<path fill-rule="evenodd" clip-rule="evenodd" d="M132.659 20.9684C138.497 23.9026 143.987 27.4831 149.027 31.6425C153.646 35.4818 156.936 40.8189 161.682 44.2996C161.85 44.3896 162.04 44.4293 162.23 44.414C162.42 44.3987 162.601 44.329 162.753 44.2133C162.904 44.0976 163.019 43.9407 163.083 43.7615C163.148 43.5822 163.159 43.3882 163.117 43.2026C160.881 37.6124 155.312 33.4989 150.714 29.8705C145.39 25.6491 139.271 22.5427 132.722 20.7363C132.722 20.7363 132.595 20.9262 132.659 20.9684Z" fill="#33001A"/>
<path fill-rule="evenodd" clip-rule="evenodd" d="M163.538 48.139C163.876 50.2486 164.994 53.6027 167.209 54.2144C167.36 54.253 167.52 54.2303 167.654 54.1512C167.788 54.0722 167.886 53.9433 167.926 53.7925C168.474 51.683 166.027 49.3204 165.078 47.464C164.614 46.578 163.391 47.2531 163.538 48.139Z" fill="#33001A"/>
<path fill-rule="evenodd" clip-rule="evenodd" d="M29.1992 87.7558C27.2165 103.535 34.0505 126.887 46.6217 137.287C46.723 137.39 46.8586 137.453 47.0028 137.462C47.147 137.472 47.2897 137.429 47.4041 137.341C47.5185 137.252 47.5964 137.125 47.6233 136.983C47.6501 136.841 47.624 136.694 47.5498 136.57C38.3112 120.77 31.9834 106.109 29.8741 87.7558C29.904 87.6979 29.9184 87.6333 29.9161 87.5683C29.9138 87.5032 29.8947 87.4398 29.8608 87.3842C29.8269 87.3286 29.7793 87.2827 29.7226 87.2508C29.6658 87.2189 29.6018 87.2021 29.5367 87.2021C29.4715 87.2021 29.4075 87.2189 29.3508 87.2508C29.294 87.2827 29.2464 87.3286 29.2125 87.3842C29.1786 87.4398 29.1596 87.5032 29.1572 87.5683C29.1549 87.6333 29.1693 87.6979 29.1992 87.7558V87.7558Z" fill="#33001A"/>
<path fill-rule="evenodd" clip-rule="evenodd" d="M51.7683 142.139C49.0263 144.248 58.518 153.277 61.26 152.517C64.0021 151.758 59.1507 148.298 58.518 147.855C57.168 146.779 55.8814 145.746 54.5947 144.501C53.751 143.784 53.055 142.603 52.0847 142.096C52.0351 142.066 51.9766 142.054 51.919 142.061C51.8614 142.069 51.8082 142.096 51.7683 142.139V142.139Z" fill="#33001A"/>
<path fill-rule="evenodd" clip-rule="evenodd" d="M47.6974 43.0975C52.2686 37.5568 57.6858 32.7726 63.7489 28.9216C69.9502 25.3143 94.4599 14.6402 100.387 19.471C100.155 19.682 73.6414 28.7318 66.7652 33.3727C61.3763 37.2102 56.5242 41.7507 52.3378 46.8735C48.6255 51.6832 44.7655 60.9862 41.5806 58.9399C35.8644 57.3789 46.1577 45.1437 47.6974 43.0975Z" fill="white"/>
<path fill-rule="evenodd" clip-rule="evenodd" d="M41.4751 66.2595C40.2148 68.686 38.6482 70.9405 36.8136 72.9678C34.4934 72.0607 35.9488 66.3017 36.5816 64.5297C37.2144 62.7577 37.805 63.2007 39.3448 63.3906C41.3486 63.5383 42.2766 63.5383 41.4751 66.2595Z" fill="white"/>
<path fill-rule="evenodd" clip-rule="evenodd" d="M171.49 120.094C168.165 127.503 163.527 134.25 157.801 140.008C151.769 145.746 127.449 163.044 119.539 160.006C119.75 159.732 146.453 143.847 153.709 136.19C158.678 130.653 162.756 124.375 165.795 117.584C168.348 111.256 169.803 99.2313 173.515 100.37C179.948 100.012 172.418 117.711 171.49 120.094Z" fill="#3872B2"/>
<path fill-rule="evenodd" clip-rule="evenodd" d="M54.9533 65.5213C53.4467 66.1318 51.8328 66.4331 50.2075 66.4073C48.5821 66.4331 46.9682 66.1318 45.4616 65.5213C44.7455 65.3061 44.11 64.8819 43.6365 64.3031C43.163 63.7243 42.8731 63.0173 42.804 62.2727C42.8811 61.5356 43.1746 60.8378 43.6475 60.2672C44.1205 59.6966 44.7517 59.2787 45.4616 59.0662C46.9682 58.4558 48.5821 58.1545 50.2075 58.1802C51.8328 58.1545 53.4467 58.4558 54.9533 59.0662C55.6694 59.2815 56.3049 59.7057 56.7784 60.2845C57.2519 60.8633 57.5418 61.5703 57.611 62.3149C57.5339 63.052 57.2404 63.7498 56.7674 64.3204C56.2945 64.891 55.6633 65.3088 54.9533 65.5213Z" fill="#D3799F"/>
<path fill-rule="evenodd" clip-rule="evenodd" d="M163.897 65.5213C160.843 66.7019 157.459 66.7019 154.405 65.5213C153.689 65.306 153.054 64.8818 152.58 64.303C152.107 63.7242 151.817 63.0172 151.748 62.2726C151.818 61.5458 152.099 60.8554 152.556 60.2859C153.013 59.7163 153.627 59.2925 154.321 59.0662C157.375 57.8855 160.759 57.8855 163.813 59.0662C164.529 59.2814 165.164 59.7056 165.638 60.2844C166.111 60.8632 166.401 61.5702 166.47 62.3148C166.4 63.0416 166.118 63.7321 165.661 64.3016C165.204 64.8711 164.591 65.295 163.897 65.5213V65.5213Z" fill="#D3799F"/>
<g clip-path="url(#clip0_593_13736)">
<path fill-rule="evenodd" clip-rule="evenodd" d="M132.389 77.0726C137.154 77.0726 141.042 72.9233 141.042 67.8554C141.042 62.7875 137.154 58.6382 132.389 58.6382C127.625 58.6382 123.737 62.7875 123.737 67.8554C123.737 72.9233 127.625 77.0726 132.389 77.0726Z" fill="black"/>
<path fill-rule="evenodd" clip-rule="evenodd" d="M75.8569 77.0726C80.6215 77.0726 84.5092 72.9233 84.5092 67.8554C84.5092 62.7875 80.6215 58.6382 75.8569 58.6382C71.0923 58.6382 67.2046 62.7875 67.2046 67.8554C67.2046 72.9233 71.0923 77.0726 75.8569 77.0726V77.0726Z" fill="black"/>
<path fill-rule="evenodd" clip-rule="evenodd" d="M148.875 49.8011C145.28 46.1903 141.042 44.3532 136.248 43.3713C133.763 42.8645 131.045 43.403 128.677 44.2265C126.777 44.8916 125.754 46.4754 123.649 45.9052C123.123 45.7468 122.802 45.3984 122.714 44.7966C121.778 38.9686 130.957 38.7468 134.348 39.0953C140.018 39.6971 146.478 44.0998 149.314 49.3894C149.46 49.6744 149.138 50.0862 148.875 49.8328V49.8011Z" fill="black"/>
<path fill-rule="evenodd" clip-rule="evenodd" d="M61.9431 48.7557C64.3985 47.4887 66.4739 44.8598 68.8123 43.2761C70.8877 41.9141 72.9046 40.8688 75.2431 40.2037C79.0723 39.1268 85.4446 40.1403 86.3216 44.9548C86.4385 45.62 85.9416 46.2535 85.3569 46.3485C83.7492 46.5702 83.3692 46.4752 81.9077 45.5566C79.6569 44.1313 77.0262 44.163 74.5708 44.6064C72.2323 45.0182 70.0108 45.905 67.8769 46.982C66.0939 47.8688 63.9016 48.1222 62.2062 49.2308C61.8846 49.4525 61.5923 48.9141 61.9431 48.724V48.7557Z" fill="black"/>
<path fill-rule="evenodd" clip-rule="evenodd" d="M48.059 91.5791C47.7374 90.1538 48.5559 88.7285 49.8713 88.4117C51.1866 88.0633 52.4728 88.9502 52.7943 90.3755C55.3959 102.063 62.9959 110.869 73.022 116.633C82.1128 121.86 93.162 124.615 104.27 124.742C115.377 124.9 126.544 122.493 135.839 117.425C146.157 111.787 154.167 102.887 157.207 90.5972C157.557 89.2036 158.902 88.3484 160.188 88.7285C161.474 89.1086 162.264 90.5656 161.913 91.9592C158.464 105.864 149.519 115.873 138.031 122.145C128.034 127.593 116.079 130.19 104.24 130.032C92.3728 129.873 80.5343 126.928 70.7713 121.321C59.5759 114.828 51.0113 104.882 48.059 91.5791Z" fill="#33001A"/>
</g>
<g clip-path="url(#clip1_593_13736)">
<path fill-rule="evenodd" clip-rule="evenodd" d="M168.612 140.235V137.791C168.605 136.29 169.031 134.82 169.839 133.555C170.648 132.29 171.805 131.284 173.171 130.658C174.538 130.032 176.056 129.812 177.544 130.025C179.032 130.238 180.427 130.874 181.563 131.858C181.71 131.988 181.873 132.119 182.02 132.265L206.714 156.974C208.179 158.438 209.002 160.423 209.002 162.492C209.002 164.561 208.179 166.545 206.714 168.009L181.955 192.718C180.861 193.805 179.469 194.545 177.955 194.844C176.44 195.144 174.871 194.989 173.444 194.4C172.017 193.811 170.797 192.814 169.937 191.534C169.078 190.255 168.616 188.75 168.612 187.209V183.819H151.807C149.735 183.814 147.749 182.99 146.285 181.526C144.822 180.063 144 178.079 144 176.012V148.043C144 145.975 144.822 143.992 146.285 142.528C147.749 141.064 149.735 140.24 151.807 140.235H168.612Z" fill="white"/>
<path fill-rule="evenodd" clip-rule="evenodd" d="M151.823 176.012V148.043H176.435V137.791L201.193 162.5L176.435 187.209V176.012H151.823Z" fill="#237EE2"/>
<path fill-rule="evenodd" clip-rule="evenodd" d="M150.353 176.012C150.353 176.396 150.506 176.765 150.779 177.037C151.051 177.309 151.421 177.462 151.807 177.462H175.03V187.242C175.036 187.625 175.188 187.992 175.455 188.268C175.73 188.542 176.103 188.696 176.492 188.696C176.881 188.696 177.253 188.542 177.529 188.268L202.222 163.527C202.489 163.248 202.638 162.877 202.638 162.492C202.638 162.106 202.489 161.736 202.222 161.457L177.464 136.764C177.261 136.569 177.005 136.438 176.729 136.387C176.452 136.336 176.167 136.367 175.908 136.477C175.649 136.586 175.427 136.769 175.271 137.002C175.115 137.236 175.032 137.51 175.03 137.791V146.592H151.807C151.421 146.592 151.051 146.745 150.779 147.017C150.506 147.289 150.353 147.658 150.353 148.043V176.012ZM176.484 149.493C176.676 149.496 176.867 149.46 177.045 149.388C177.223 149.316 177.385 149.209 177.522 149.074C177.659 148.939 177.767 148.779 177.841 148.602C177.915 148.425 177.954 148.235 177.954 148.043V141.214L199.185 162.402L177.954 183.591V175.914C177.954 175.722 177.915 175.532 177.841 175.355C177.767 175.178 177.659 175.017 177.522 174.882C177.385 174.747 177.223 174.641 177.045 174.569C176.867 174.497 176.676 174.461 176.484 174.463H153.276V149.493H176.484Z" fill="#33001A"/>
<path fill-rule="evenodd" clip-rule="evenodd" d="M172.597 153.715C171.274 153.715 156.477 153.389 156.477 152.639C156.477 151.889 171.274 151.694 172.597 151.694C173.511 151.694 177.398 151.107 177.186 152.639C177.398 154.253 173.577 153.699 172.597 153.715Z" fill="#3872B2"/>
<path fill-rule="evenodd" clip-rule="evenodd" d="M178.607 150.634C178.607 150.211 179.097 148.809 179.554 148.727C180.289 148.727 180.599 150.08 180.616 150.651C180.632 151.221 180.24 151.286 179.685 151.286C179.129 151.286 178.59 151.433 178.607 150.634Z" fill="#3872B2"/>
<path fill-rule="evenodd" clip-rule="evenodd" d="M156.918 168.139L157.065 170.291C157.065 170.6 157.163 170.894 157.212 171.187L157.065 171.089C157.065 171.089 156.902 170.992 156.837 170.943C156.714 170.885 156.58 170.852 156.445 170.845C156.445 170.845 172.907 171.203 172.907 171.888C172.907 172.573 157.653 172.784 156.445 172.801C156.287 172.8 156.132 172.766 155.987 172.703C155.891 172.643 155.798 172.578 155.71 172.507C155.632 172.407 155.566 172.297 155.514 172.181C155.434 172.026 155.374 171.862 155.334 171.692C155.237 171.318 155.166 170.936 155.122 170.552C155.024 169.802 154.959 169.052 154.91 168.286V167.357C154.828 165.434 154.028 162.255 155.644 162.304C157.261 162.353 156.771 164.977 156.918 167.194V168.139Z" fill="white"/>
</g>
<defs>
<clipPath id="clip0_593_13736">
<rect width="114" height="91" fill="white" transform="translate(48 39)"/>
</clipPath>
<clipPath id="clip1_593_13736">
<rect width="65" height="65" fill="white" transform="translate(144 195) rotate(-90)"/>
</clipPath>
</defs>
</svg>
