<svg width="22" height="15" viewBox="0 0 22 15" fill="none" xmlns="http://www.w3.org/2000/svg">
<path d="M20.6302 6.53614C21.1233 7.11186 21.1233 7.88907 20.6302 8.46386C19.077 10.2736 15.3507 14 11.0002 14C6.64964 14 2.9233 10.2736 1.37014 8.46386C1.13023 8.18819 1 7.84907 1 7.5C1 7.15093 1.13023 6.81181 1.37014 6.53614C2.9233 4.72636 6.64964 1 11.0002 1C15.3507 1 19.077 4.72636 20.6302 6.53614V6.53614Z" stroke="black" stroke-width="2" stroke-linecap="round" stroke-linejoin="round"/>
<path d="M11 10C12.6569 10 14 8.65685 14 7C14 5.34315 12.6569 4 11 4C9.34315 4 8 5.34315 8 7C8 8.65685 9.34315 10 11 10Z" stroke="black" stroke-width="2" stroke-linecap="round" stroke-linejoin="round"/>
</svg>
