<svg width="23" height="17" viewBox="0 0 23 17" fill="none" xmlns="http://www.w3.org/2000/svg">
<path d="M11.5 0C5.175 0 0 5.1 0 11.3333H2.875C2.875 6.63 6.7275 2.83333 11.5 2.83333C16.2725 2.83333 20.125 6.63 20.125 11.3333H23C23 5.1 17.825 0 11.5 0ZM9.80375 5.92167C8.49087 6.32351 7.36752 7.17561 6.63734 8.32353C5.90715 9.47144 5.61845 10.8392 5.82357 12.1788C6.02869 13.5185 6.71406 14.7414 7.75543 15.6259C8.7968 16.5103 10.1253 16.9978 11.5 17C14.6912 17 17.25 14.4783 17.25 11.3333C17.25 8.78333 15.5538 6.65833 13.1963 5.92167L11.5 8.415L9.80375 5.92167Z" fill="white"/>
</svg>
