<svg width="60" height="66" viewBox="0 0 60 66" fill="none" xmlns="http://www.w3.org/2000/svg">
<path d="M17.2525 55.7243C15.0125 56.2252 12.6687 55.9367 10.616 54.9076C6.02244 52.3155 6.71916 46.3383 4.48731 31.78C2.36175 17.8371 0.106281 12.8423 3.53081 8.96008C5.36668 7.10711 7.8058 5.97714 10.4035 5.77618C19.0829 4.73461 26.9356 3.74038 33.7256 2.94737C46.1484 1.50337 47.7308 1.40868 49.8918 2.56861C56.6463 6.21412 57.1659 17.5531 58.2051 40.2428C58.3885 42.4376 57.9288 44.6383 56.8825 46.575C56.0183 48.1136 54.7635 49.3958 53.2454 50.2916C47.0104 53.6885 29.2974 55.1088 29.2974 55.1088C29.8089 56.3588 30.4543 57.5494 31.2222 58.6597C32.4609 60.4595 33.9987 62.0329 35.7686 63.3112C31.0812 63.461 26.4471 62.2793 22.4011 59.9024C20.4997 58.756 18.7669 57.3498 17.2525 55.7243Z" fill="#237EE2" stroke="#33001A" stroke-width="3" stroke-linejoin="round"/>
<path d="M19.7323 24.1573C20.7061 23.2389 21.9969 22.7341 23.334 22.7489C24.4026 22.6879 25.4601 22.9926 26.3334 23.6129C27.2898 24.4327 28.0522 25.4556 28.5652 26.6074C28.6981 26.8527 28.8991 27.0542 29.1439 27.1874C29.4669 27.3546 29.8426 27.3876 30.1897 27.279C30.5367 27.1704 30.8271 26.9291 30.9978 26.6074C31.5222 25.4793 32.2835 24.478 33.2297 23.6721C34.1029 23.0518 35.1605 22.7471 36.2291 22.808C37.5661 22.7932 38.857 23.298 39.8307 24.2165C40.2903 24.6423 40.6576 25.1584 40.9095 25.7327C41.1614 26.3069 41.2926 26.927 41.295 27.5543C41.295 27.8502 41.295 28.1343 41.295 28.4183C41.295 28.5248 41.295 28.6314 41.295 28.7379C41.0905 30.7861 40.2897 32.7288 38.9923 34.3245C36.8841 36.6766 34.1526 38.3801 31.1159 39.2365C26.3924 37.2243 23.0624 35.4844 21.0195 33.5907C19.5646 32.314 18.6207 30.5521 18.3625 28.6314C18.3569 28.5249 18.3569 28.4182 18.3625 28.3118C18.3625 28.0277 18.3625 27.7437 18.3625 27.4478C18.3591 26.8353 18.4787 26.2284 18.714 25.6631C18.9493 25.0978 19.2956 24.5858 19.7323 24.1573Z" fill="#FECC00" stroke="#33001A" stroke-width="3" stroke-linejoin="round"/>
<path d="M33.7493 6.53389C34.7412 5.68169 41.6139 5.43314 43.0427 5.35029C44.7387 5.1527 46.4536 5.49648 47.9433 6.33268C49.2429 7.1364 50.2969 8.28292 50.99 9.64677C51.4864 10.6093 51.8821 11.6208 52.1708 12.665C52.3834 13.5053 54.1901 19.1393 52.3716 19.0683C51.0254 19.5299 50.5767 14.0853 50.3405 13.1502C50.0973 12.2431 49.7732 11.3598 49.3722 10.5108C48.8416 9.40824 48.0261 8.46824 47.0104 7.78851C45.8365 7.06143 44.4676 6.7143 43.0899 6.79428L33.7493 6.53389Z" fill="white"/>
<path d="M12.7652 48.1493C13.1785 48.1493 13.3556 47.6285 13.4029 46.9657C13.4029 46.9657 13.4029 47.0604 13.4029 47.0722C13.6023 47.8321 13.9212 48.5553 14.3476 49.2145C14.5165 49.4626 14.7192 49.6857 14.9498 49.8774C15.1549 50.0333 15.3872 50.1497 15.6347 50.2206C22.0705 51.7593 19.3426 50.9544 23.5938 55.9611C23.8181 56.4345 25.7548 57.4643 25.7193 57.6773C25.495 58.1981 23.2277 56.8133 22.9325 56.5884C18.2917 51.854 21.3029 53.227 15.2332 51.9487C14.7668 51.8274 14.3293 51.6141 13.9461 51.3214C13.5461 51.037 13.1951 50.6892 12.9069 50.2916C12.3055 49.4805 11.8573 48.5659 11.5843 47.593V47.451C11.2382 46.2027 11.0245 44.9212 10.9467 43.6279C11.2655 45.8886 11.8323 48.7766 12.7652 48.1493Z" fill="#3872B2"/>
<path d="M31.5292 50.1141C32.2732 49.6406 48.8053 46.4686 51.7457 45.7229C53.463 45.0958 55.2231 44.5935 57.0124 44.2197C56.9489 44.9773 56.8105 45.7266 56.5991 46.4567C55.0167 46.9775 53.0565 47.3799 52.5369 47.5457C49.2777 48.3505 34.2688 50.8953 31.5292 50.1141Z" fill="#33001A"/>
<path d="M10.2382 20.1211C10.4271 20.5235 10.8404 24.607 11.2773 29.1283V29.4479C11.7261 34.2652 12.1984 39.3665 12.4582 40.9289C12.9538 42.9155 13.2622 44.9445 13.3793 46.9889C13.3793 47.6636 13.1667 48.1725 12.7534 48.1725C11.8087 48.7998 11.2301 45.9118 10.9113 43.663C10.7577 42.6214 10.6515 41.7219 10.5924 41.2958C10.3562 39.473 9.99018 34.277 9.83666 29.3887C9.84255 29.2823 9.84255 29.1756 9.83666 29.0691C9.73038 25.0449 9.78943 21.3047 10.2382 20.1211Z" fill="#3872B2"/>
</svg>
