<svg width="60" height="66" viewBox="0 0 60 66" fill="none" xmlns="http://www.w3.org/2000/svg">
<path d="M42.7475 55.7243C44.9875 56.2252 47.3313 55.9367 49.384 54.9076C53.9776 52.3155 53.2808 46.3383 55.5127 31.78C57.6383 17.8371 59.8937 12.8423 56.4692 8.96008C54.6333 7.10711 52.1942 5.97714 49.5965 5.77618C40.9171 4.73461 33.0644 3.74038 26.2744 2.94737C13.8516 1.50337 12.2692 1.40868 10.1082 2.56861C3.35366 6.21412 2.83408 17.5531 1.79492 40.2428C1.61152 42.4376 2.07117 44.6383 3.11749 46.575C3.98173 48.1136 5.2365 49.3958 6.75457 50.2916C12.9896 53.6885 30.7026 55.1088 30.7026 55.1088C30.1911 56.3588 29.5457 57.5494 28.7778 58.6597C27.5391 60.4595 26.0013 62.0329 24.2314 63.3112C28.9188 63.461 33.5529 62.2793 37.5989 59.9024C39.5003 58.756 41.2331 57.3498 42.7475 55.7243Z" fill="#C73E20" stroke="#33001A" stroke-width="3" stroke-linejoin="round"/>
<path d="M40.2677 24.1573C39.2939 23.2389 38.0031 22.7341 36.666 22.7489C35.5974 22.6879 34.5399 22.9926 33.6666 23.6129C32.7102 24.4327 31.9478 25.4556 31.4348 26.6074C31.3019 26.8527 31.1009 27.0542 30.8561 27.1874C30.5331 27.3546 30.1574 27.3876 29.8103 27.279C29.4633 27.1704 29.1729 26.9291 29.0022 26.6074C28.4778 25.4793 27.7165 24.478 26.7703 23.6721C25.8971 23.0518 24.8395 22.7471 23.7709 22.808C22.4339 22.7932 21.143 23.298 20.1693 24.2165C19.7097 24.6423 19.3424 25.1584 19.0905 25.7327C18.8386 26.3069 18.7074 26.927 18.705 27.5543C18.705 27.8502 18.705 28.1343 18.705 28.4183C18.705 28.5248 18.705 28.6314 18.705 28.7379C18.9095 30.7861 19.7103 32.7288 21.0077 34.3245C23.1159 36.6766 25.8474 38.3801 28.8841 39.2365C33.6076 37.2243 36.9376 35.4844 38.9805 33.5907C40.4354 32.314 41.3793 30.5521 41.6375 28.6314C41.6431 28.5249 41.6431 28.4182 41.6375 28.3118C41.6375 28.0277 41.6375 27.7437 41.6375 27.4478C41.6409 26.8353 41.5213 26.2284 41.286 25.6631C41.0507 25.0978 40.7044 24.5858 40.2677 24.1573Z" fill="#237EE2" stroke="#33001A" stroke-width="3" stroke-linejoin="round"/>
<path d="M26.2507 6.53389C25.2588 5.68169 18.3861 5.43314 16.9573 5.35029C15.2613 5.1527 13.5464 5.49648 12.0567 6.33268C10.7571 7.1364 9.70312 8.28292 9.01004 9.64677C8.5136 10.6093 8.11787 11.6208 7.82917 12.665C7.61661 13.5053 5.80988 19.1393 7.62842 19.0683C8.97461 19.5299 9.42334 14.0853 9.65952 13.1502C9.90272 12.2431 10.2268 11.3598 10.6278 10.5108C11.1584 9.40824 11.9739 8.46824 12.9896 7.78851C14.1635 7.06143 15.5324 6.7143 16.9101 6.79428L26.2507 6.53389Z" fill="white"/>
<path d="M47.2348 48.1493C46.8215 48.1493 46.6444 47.6285 46.5971 46.9657C46.5971 46.9657 46.5971 47.0604 46.5971 47.0722C46.3977 47.8321 46.0788 48.5553 45.6524 49.2145C45.4835 49.4626 45.2808 49.6857 45.0502 49.8774C44.8451 50.0333 44.6128 50.1497 44.3653 50.2206C37.9295 51.7593 40.6574 50.9544 36.4062 55.9611C36.1819 56.4345 34.2452 57.4643 34.2807 57.6773C34.505 58.1981 36.7723 56.8133 37.0675 56.5884C41.7083 51.854 38.6971 53.227 44.7668 51.9487C45.2332 51.8274 45.6707 51.6141 46.0539 51.3214C46.4539 51.037 46.8049 50.6892 47.0931 50.2916C47.6945 49.4805 48.1427 48.5659 48.4157 47.593V47.451C48.7618 46.2027 48.9755 44.9212 49.0533 43.6279C48.7345 45.8886 48.1677 48.7766 47.2348 48.1493Z" fill="#B92006"/>
<path d="M28.4708 50.1141C27.7268 49.6406 11.1946 46.4686 8.25427 45.7229C6.53698 45.0958 4.77687 44.5935 2.98759 44.2197C3.05105 44.9773 3.1895 45.7266 3.4009 46.4567C4.98326 46.9775 6.94351 47.3799 7.46309 47.5457C10.7223 48.3505 25.7311 50.8953 28.4708 50.1141Z" fill="#33001A"/>
<path d="M49.7619 20.1211C49.5729 20.5235 49.1596 24.607 48.7227 29.1283V29.4479C48.274 34.2652 47.8016 39.3665 47.5418 40.9289C47.0462 42.9155 46.7378 44.9445 46.6207 46.9889C46.6207 47.6636 46.8333 48.1725 47.2466 48.1725C48.1913 48.7998 48.7699 45.9118 49.0888 43.663C49.2423 42.6214 49.3486 41.7219 49.4076 41.2958C49.6438 39.473 50.0098 34.277 50.1634 29.3887C50.1575 29.2823 50.1575 29.1756 50.1634 29.0691C50.2696 25.0449 50.2106 21.3047 49.7619 20.1211Z" fill="#B92006"/>
</svg>
