<svg width="95" height="97" viewBox="0 0 95 97" fill="none" xmlns="http://www.w3.org/2000/svg">
<g clip-path="url(#clip0_167_1024)">
<path fill-rule="evenodd" clip-rule="evenodd" d="M79.4307 66.4423C81.0704 69.4514 81.9474 72.8154 81.9852 76.2408C81.9826 78.0303 81.5774 79.7964 80.7994 81.4086C80.0215 83.0207 78.8907 84.4378 77.4906 85.555C76.0978 86.5905 74.5056 87.3272 72.814 87.7189C71.1224 88.1106 69.3679 88.1488 67.6608 87.8311C64.5816 87.276 61.662 86.0527 59.1082 84.2475C58.365 87.3795 56.9532 90.3143 54.9694 92.8514C53.8527 94.2719 52.398 95.391 50.7377 96.1071C49.0774 96.8232 47.2642 97.1135 45.4629 96.9516C43.8699 96.74 42.3348 96.2143 40.9471 95.4051C39.5593 94.5959 38.3465 93.5193 37.3792 92.238C34.9534 89.016 33.2646 85.3021 32.4319 81.358C29.3792 83.2894 25.9101 84.468 22.3111 84.7963C20.6426 84.9234 18.9666 84.6795 17.4038 84.0822C15.8411 83.4849 14.4304 82.5489 13.2735 81.3418C12.1855 80.1385 11.3616 78.7212 10.8549 77.1811C10.3481 75.641 10.1697 74.012 10.331 72.3989C10.7581 68.6378 12.0711 65.0311 14.1627 61.874C10.2156 60.9248 6.57629 58.9857 3.58916 56.2403C2.33496 55.0451 1.36237 53.5865 0.741655 51.9702C0.120942 50.3538 -0.132383 48.6199 -1.58288e-05 46.8938C0.194017 45.2366 0.724148 43.6362 1.55804 42.1902C2.39193 40.7443 3.5121 39.4831 4.85022 38.4836C8.60265 35.7491 12.9945 34.0207 17.6064 33.4633C15.4147 29.388 14.3594 24.7998 14.5507 20.1781C14.6838 18.4397 15.185 16.7494 16.0211 15.2189C16.8572 13.6884 18.0092 12.3526 19.4009 11.2997C20.8267 10.2933 22.4514 9.6027 24.1662 9.27419C25.881 8.94568 27.6463 8.98684 29.3439 9.39491C33.4768 10.4682 37.2525 12.6121 40.2893 15.6098C42.6982 10.315 45.8994 5.05259 49.9898 2.29223C51.6245 1.05709 53.5697 0.297765 55.6099 0.0983286C57.6502 -0.101108 59.7059 0.267126 61.5495 1.16226C64.621 2.88424 66.9 5.73293 67.9033 9.10434C68.9709 12.4176 69.4416 15.8936 69.2937 19.3709C72.148 18.1288 75.2342 17.507 78.3475 17.5468C80.4359 17.555 82.4832 18.1263 84.2733 19.2003C86.0633 20.2744 87.5295 21.8113 88.5168 23.6487C89.332 25.3475 89.7699 27.202 89.8006 29.0854C89.8313 30.9688 89.454 32.8366 88.6947 34.561C87.4554 37.5015 85.6227 40.1556 83.3109 42.3578C85.9714 43.4192 88.4694 44.8483 90.7318 46.6033C92.237 47.7126 93.4144 49.2068 94.14 50.9285C94.8656 52.6502 95.1124 54.5355 94.8545 56.3856C94.4921 58.1062 93.7132 59.7119 92.5859 61.0626C91.4586 62.4133 90.0171 63.4678 88.3875 64.134C85.5281 65.328 82.5117 66.1055 79.4307 66.4423Z" fill="white"/>
<path fill-rule="evenodd" clip-rule="evenodd" d="M42.2456 26.4736C37.1852 19.3709 32.0116 15.8196 28.1637 14.9963C27.2642 14.7558 26.3233 14.712 25.4053 14.868C24.4872 15.024 23.6138 15.3761 22.8446 15.9003C22.1063 16.4823 21.5019 17.2159 21.0724 18.0514C20.6428 18.8869 20.3981 19.8049 20.3549 20.7431C19.9507 24.7625 21.9716 30.9774 27.4362 38.4998C18.1399 38.3706 11.6891 40.2754 8.47177 42.8905C7.74737 43.4133 7.13723 44.078 6.67859 44.844C6.21995 45.61 5.92241 46.4612 5.80414 47.3458C5.75084 48.2338 5.89744 49.1225 6.23316 49.9466C6.56889 50.7706 7.08522 51.5091 7.74424 52.1078C10.331 54.7391 15.828 56.9506 24.5907 57.79C19.013 63.7627 16.3938 69.0897 16.1351 72.7056C16.0071 73.5551 16.0651 74.4221 16.3052 75.247C16.5452 76.072 16.9616 76.8351 17.5256 77.4838C18.1168 78.0754 18.8331 78.5274 19.622 78.8067C20.4109 79.0861 21.2524 79.1856 22.0848 79.098C25.5446 78.9527 30.6697 76.5152 36.8457 71.0268C37.2175 79.2594 39.3193 85.555 41.8899 88.6544C42.386 89.3464 43.0141 89.9337 43.7383 90.3825C44.4625 90.8313 45.2684 91.1327 46.1096 91.2694C46.9742 91.3315 47.8404 91.173 48.6267 90.8087C49.4129 90.4444 50.0935 89.8863 50.6042 89.187C52.7383 86.6043 54.4682 81.3095 54.9694 72.641C59.8196 78.6299 64.7669 81.584 68.5015 82.1651C69.4273 82.3605 70.3836 82.3624 71.3102 82.1707C72.2367 81.979 73.1135 81.5979 73.8853 81.0513C74.6148 80.4485 75.1966 79.6871 75.5861 78.8254C75.9756 77.9636 76.1626 77.0244 76.1326 76.0794C76.2296 72.5119 74.1278 67.3786 68.8249 61.3897C76.7955 61.2445 82.6642 60.3082 85.8007 58.8392C86.5831 58.5597 87.2859 58.095 87.8491 57.485C88.4122 56.8749 88.8189 56.1376 89.0342 55.3363C89.1124 54.4821 88.9549 53.6228 88.5787 52.8516C88.2025 52.0805 87.622 51.4268 86.9001 50.9617C84.3618 48.8471 79.0589 46.4903 70.5548 44.1012C77.5392 40.6951 81.6942 36.1752 83.1978 32.3656C83.6375 31.4027 83.865 30.3568 83.865 29.2986C83.865 28.2403 83.6375 27.1944 83.1978 26.2315C82.6678 25.3007 81.8945 24.5311 80.9605 24.0051C80.0265 23.4791 78.9668 23.2164 77.8948 23.2451C74.2733 23.0837 68.7117 25.0369 61.4849 30.4447C63.7807 22.5187 63.7645 15.3353 62.2609 10.9769C61.7353 9.02069 60.4724 7.34325 58.7364 6.29556C57.8167 5.86093 56.7924 5.69545 55.7823 5.8183C54.7722 5.94115 53.8176 6.3473 53.0293 6.98968C49.7958 9.24962 45.8509 15.2708 42.0516 26.4575L42.2456 26.4736ZM57.4268 9.24962C58.3813 9.92547 59.0588 10.923 59.3346 12.0584C60.9513 16.8043 60.531 25.5051 56.6508 34.7708C56.4148 35.1242 56.3277 35.5561 56.4085 35.9731C56.4892 36.3901 56.7313 36.7585 57.0823 36.9984C57.4332 37.2384 57.8647 37.3306 58.2833 37.2551C58.7019 37.1796 59.0738 36.9424 59.3184 36.5949C68.0489 29.0564 74.3703 26.3929 77.9595 26.5543C78.4447 26.518 78.9309 26.611 79.3683 26.8237C79.8057 27.0364 80.1788 27.3612 80.4493 27.765C80.6537 28.3155 80.7419 28.9022 80.7086 29.4883C80.6752 30.0744 80.5209 30.6473 80.2553 31.1711C78.6385 35.013 73.7883 39.8073 65.0094 42.9066C64.8012 42.9751 64.6092 43.0851 64.4449 43.23C64.2807 43.3748 64.1476 43.5515 64.0539 43.7493C63.9601 43.9471 63.9076 44.1618 63.8996 44.3805C63.8915 44.5992 63.9281 44.8172 64.007 45.0213C64.0945 45.2785 64.2455 45.5095 64.4462 45.6929C64.6468 45.8763 64.8906 46.0062 65.1549 46.0706C75.9871 48.7502 82.2762 51.333 84.8954 53.5122C85.6229 54.1095 85.9462 54.5453 85.8977 54.8036C85.8492 55.0619 85.3642 55.4493 84.475 55.869C81.2415 57.3703 74.532 58.242 65.0741 58.129C64.6453 58.129 64.234 58.299 63.9308 58.6018C63.6276 58.9045 63.4573 59.3151 63.4573 59.7432C63.4538 59.9622 63.4951 60.1796 63.5785 60.3822C63.6618 60.5848 63.7856 60.7683 63.9423 60.9216C70.4093 67.3786 73.0123 72.6895 72.9314 76.0148C72.9573 76.4677 72.8806 76.9205 72.7071 77.3397C72.5335 77.7589 72.2676 78.1337 71.9291 78.4362C71.513 78.7065 71.0458 78.8889 70.5565 78.9722C70.0671 79.0555 69.5659 79.0379 69.0836 78.9205C65.4136 78.3393 60.1753 74.7234 54.9694 66.975C54.7895 66.6528 54.5044 66.4018 54.1617 66.2638C53.819 66.1259 53.4393 66.1093 53.0858 66.2169C52.7324 66.3245 52.4265 66.5497 52.2191 66.8551C52.0117 67.1604 51.9154 67.5275 51.9461 67.8952C51.7359 78.533 50.1192 84.5542 48.0821 86.9917C47.908 87.2662 47.6701 87.4946 47.3886 87.6576C47.1071 87.8206 46.7904 87.9134 46.4653 87.9279C45.6401 87.727 44.9229 87.2188 44.4605 86.5074C41.9222 83.4242 39.9337 76.5314 40.1115 67.2333C40.1351 66.8982 40.0533 66.564 39.8777 66.2774C39.702 65.9908 39.4411 65.7661 39.1315 65.6347C38.8218 65.5032 38.4787 65.4714 38.1501 65.5439C37.8215 65.6163 37.5238 65.7893 37.2984 66.0388C30.5242 72.7217 25.2051 75.579 21.9554 75.7243C21.6016 75.7756 21.2409 75.7503 20.8977 75.65C20.5546 75.5498 20.2371 75.3769 19.9668 75.1431C19.7343 74.8439 19.5644 74.5012 19.4671 74.1351C19.3699 73.7691 19.3474 73.3872 19.401 73.0123C19.6435 69.5578 22.6345 64.0694 29.4086 57.6608C29.5676 57.51 29.6942 57.3285 29.7807 57.1273C29.8672 56.9261 29.9118 56.7095 29.9118 56.4905C29.9118 56.2716 29.8672 56.0549 29.7807 55.8537C29.6942 55.6525 29.5676 55.471 29.4086 55.3202C29.2622 55.1666 29.0868 55.0434 28.8926 54.9576C28.6985 54.8717 28.4892 54.8249 28.2769 54.8198C18.3986 54.4001 12.449 52.3338 10.0238 49.8802C9.70984 49.6136 9.45757 49.2821 9.28449 48.9087C9.11142 48.5352 9.02168 48.1286 9.02147 47.7171C9.20123 46.8196 9.73037 46.03 10.4927 45.5217C13.613 43.0519 20.468 41.3408 30.7182 41.9704C30.9411 41.9882 31.1654 41.9597 31.3767 41.8866C31.588 41.8136 31.7819 41.6975 31.946 41.5458C32.1101 41.3941 32.2409 41.21 32.3301 41.0052C32.4193 40.8005 32.465 40.5794 32.4643 40.3561C32.48 39.9346 32.3422 39.5217 32.0763 39.1939C25.6093 31.1227 23.2003 24.6657 23.5722 20.969C23.5784 20.4928 23.6836 20.0231 23.8812 19.5896C24.0788 19.1561 24.3645 18.7683 24.7201 18.4508C25.1386 18.22 25.6015 18.0805 26.0781 18.0415C26.5547 18.0026 27.0341 18.065 27.4847 18.2248C31.0739 18.9835 36.1505 22.9546 41.3887 31.1388C41.5023 31.3246 41.6524 31.4856 41.8299 31.612C42.0074 31.7385 42.2087 31.8277 42.4216 31.8745C42.6346 31.9212 42.8548 31.9245 43.0691 31.8841C43.2833 31.8436 43.4872 31.7603 43.6683 31.6392C44.012 31.4206 44.2603 31.0804 44.3635 30.6868C48.2276 18.1603 52.0269 11.8324 55.0826 9.68547C55.3949 9.40382 55.7793 9.21402 56.1931 9.13709C56.6068 9.06016 57.0339 9.09911 57.4268 9.24962Z" fill="#33001A"/>
<path fill-rule="evenodd" clip-rule="evenodd" d="M84.8954 53.5122C82.2763 51.333 75.9871 48.7502 65.1549 46.0706C64.8906 46.0062 64.6469 45.8763 64.4462 45.6929C64.2455 45.5095 64.0945 45.2785 64.007 45.0213C63.9281 44.8172 63.8915 44.5992 63.8996 44.3805C63.9076 44.1618 63.9601 43.9471 64.0539 43.7493C64.1476 43.5515 64.2807 43.3748 64.445 43.23C64.6092 43.0851 64.8012 42.9751 65.0094 42.9066C73.7883 39.8073 78.7194 35.013 80.2553 31.1711C80.5209 30.6473 80.6752 30.0744 80.7086 29.4883C80.742 28.9022 80.6537 28.3155 80.4493 27.765C80.1788 27.3612 79.8058 27.0364 79.3683 26.8237C78.9309 26.611 78.4447 26.518 77.9595 26.5543C74.3704 26.3929 68.0489 29.0564 59.3185 36.5949C59.0762 36.9567 58.6999 37.2076 58.2724 37.2923C57.8449 37.3771 57.4012 37.2888 57.0388 37.0469C56.6765 36.805 56.4253 36.4293 56.3404 36.0025C56.2555 35.5756 56.3439 35.1326 56.5862 34.7708C60.4663 25.5051 60.9029 16.8043 59.27 12.0584C58.9942 10.923 58.3166 9.92547 57.3622 9.24963C56.9649 9.10537 56.5352 9.07427 56.1213 9.15978C55.7073 9.2453 55.3253 9.44408 55.0179 9.7339C51.9623 11.8324 48.1629 18.1603 44.2989 30.6061C44.1956 30.9997 43.9473 31.3398 43.6037 31.5585C43.4225 31.6796 43.2187 31.7629 43.0044 31.8034C42.7902 31.8438 42.5699 31.8405 42.357 31.7938C42.144 31.747 41.9427 31.6578 41.7652 31.5313C41.5877 31.4049 41.4377 31.2439 41.3241 31.0581C36.0858 22.9869 31.0092 18.9835 27.4201 18.2248C26.9711 18.0914 26.4992 18.0526 26.0344 18.111C25.5696 18.1693 25.122 18.3235 24.7201 18.5638C24.3645 18.8813 24.0789 19.2691 23.8813 19.7026C23.6837 20.1361 23.5784 20.6058 23.5722 21.082C23.2003 24.8432 25.5446 31.2034 32.0763 39.3069C32.3422 39.6347 32.48 40.0476 32.4643 40.4691C32.45 40.6828 32.3933 40.8914 32.2975 41.083C32.2016 41.2745 32.0686 41.4451 31.9061 41.5848C31.7436 41.7245 31.5549 41.8306 31.351 41.8968C31.147 41.963 30.9319 41.988 30.7182 41.9704C20.4034 41.2924 13.5484 43.0035 10.4927 45.4733C9.73039 45.9816 9.20125 46.7712 9.02148 47.6687C9.02169 48.0802 9.11144 48.4868 9.28451 48.8602C9.45759 49.2337 9.70985 49.5652 10.0239 49.8318C12.449 52.2854 18.3986 54.3516 28.2769 54.7713C28.4892 54.7765 28.6985 54.8233 28.8927 54.9091C29.0868 54.995 29.2622 55.1182 29.4087 55.2718C29.5676 55.4226 29.6942 55.6041 29.7807 55.8053C29.8673 56.0065 29.9119 56.2231 29.9119 56.4421C29.9119 56.661 29.8673 56.8777 29.7807 57.0789C29.6942 57.2801 29.5676 57.4616 29.4087 57.6124C22.6992 64.0694 19.7082 69.5094 19.401 72.9639C19.3384 73.3381 19.352 73.7211 19.4409 74.0899C19.5298 74.4588 19.6921 74.806 19.9184 75.1108C20.1886 75.3446 20.5061 75.5175 20.8492 75.6178C21.1924 75.718 21.5531 75.7433 21.907 75.692C25.1404 75.5305 30.4919 72.6733 37.2499 66.0065C37.4753 65.757 37.7731 65.584 38.1017 65.5116C38.4303 65.4391 38.7733 65.4709 39.083 65.6024C39.3927 65.7339 39.6535 65.9586 39.8292 66.2451C40.0049 66.5317 40.0866 66.8659 40.063 67.201C39.8852 76.4991 41.8738 83.3435 44.4121 86.4751C44.8744 87.1866 45.5916 87.6947 46.4168 87.8957C46.7419 87.8811 47.0586 87.7883 47.3401 87.6253C47.6216 87.4623 47.8595 87.2339 48.0336 86.9594C50.1192 84.5542 51.7359 78.533 51.9299 67.9113C51.8902 67.5378 51.9822 67.1622 52.1901 66.8491C52.3979 66.536 52.7086 66.3051 53.0686 66.1962C53.4285 66.0872 53.8153 66.107 54.1623 66.2521C54.5093 66.3972 54.7947 66.6586 54.9694 66.9912C60.1753 74.7396 65.4136 78.2909 69.0836 78.9366C69.5659 79.054 70.0671 79.0716 70.5565 78.9883C71.0459 78.905 71.513 78.7226 71.9291 78.4523C72.2676 78.1498 72.5336 77.7751 72.7071 77.3559C72.8806 76.9367 72.9573 76.4838 72.9315 76.0309C72.9315 72.7056 70.474 67.427 63.9423 60.9378C63.7857 60.7845 63.6619 60.6009 63.5785 60.3984C63.4951 60.1958 63.4539 59.9784 63.4573 59.7594C63.4573 59.3312 63.6277 58.9206 63.9309 58.6179C64.2341 58.3152 64.6453 58.1451 65.0741 58.1451C74.5159 58.2581 81.2415 57.3864 84.475 55.8852C85.3642 55.4655 85.8493 55.1103 85.8978 54.8198C85.9463 54.5292 85.6876 54.1095 84.8954 53.5122Z" fill="#237EE2"/>
<path fill-rule="evenodd" clip-rule="evenodd" d="M64.8801 50.8326C63.6676 49.8156 60.7251 48.6211 55.7132 47.3781C55.5904 47.3452 55.4768 47.2843 55.3815 47.2003C55.2861 47.1163 55.2115 47.0114 55.1635 46.8938C55.1002 46.701 55.1136 46.4912 55.2008 46.3079C55.2881 46.1247 55.4426 45.9819 55.6323 45.9091C59.7227 44.4563 62.0993 42.2287 62.7299 40.4368C62.8616 40.1906 62.9384 39.9189 62.9551 39.6403C62.9719 39.3617 62.9281 39.0828 62.8269 38.8226C62.7034 38.6309 62.5295 38.4768 62.3242 38.3772C62.1189 38.2775 61.8901 38.2362 61.6628 38.2576C60.0461 38.1769 57.0551 39.4037 52.997 42.9228C52.8675 43.0404 52.702 43.1109 52.5273 43.1227C52.3526 43.1345 52.179 43.087 52.0348 42.9879C51.8906 42.8888 51.7842 42.7439 51.7328 42.5767C51.6815 42.4096 51.6883 42.23 51.7521 42.0672C53.3331 38.7848 53.7712 35.0693 52.997 31.5101C52.8764 30.9778 52.5588 30.5108 52.1078 30.2025C51.9241 30.1359 51.7254 30.1217 51.534 30.1616C51.3427 30.2016 51.1663 30.294 51.0246 30.4285C49.6019 31.3971 47.7911 34.3511 46.045 40.114C45.993 40.2975 45.8787 40.4573 45.7217 40.566C45.5479 40.6745 45.3381 40.71 45.1381 40.6647C44.9382 40.6193 44.7644 40.4968 44.6546 40.3238C42.2134 36.5627 39.8044 34.7063 38.1877 34.3673C37.9803 34.2788 37.7534 34.2459 37.5294 34.272C37.3054 34.2981 37.0921 34.3822 36.9107 34.516C36.7293 34.6498 36.5861 34.8286 36.4953 35.0347C36.4045 35.2408 36.3693 35.4671 36.3931 35.691C36.2152 37.4505 37.3146 40.4046 40.3541 44.1658C40.4791 44.3206 40.5424 44.516 40.5319 44.7146C40.5258 44.8143 40.4999 44.9118 40.4559 45.0015C40.4119 45.0912 40.3506 45.1714 40.2755 45.2374C40.2004 45.3034 40.113 45.3539 40.0183 45.3861C39.9235 45.4182 39.8234 45.4314 39.7236 45.4249C34.8733 45.1182 31.7368 45.9091 30.3141 47.0391C30.1385 47.1583 29.9882 47.311 29.8717 47.4882C29.7551 47.6655 29.6747 47.8639 29.6351 48.0722C29.6333 48.2618 29.6729 48.4496 29.7511 48.6224C29.8292 48.7952 29.9441 48.949 30.0878 49.0731C31.2195 50.2192 33.9841 51.1716 38.5757 51.3653C38.7784 51.3733 38.9699 51.4602 39.1092 51.6074C39.1811 51.678 39.2381 51.7622 39.2771 51.855C39.316 51.9479 39.3361 52.0475 39.3361 52.1482C39.3361 52.2489 39.316 52.3485 39.2771 52.4413C39.2381 52.5342 39.1811 52.6184 39.1092 52.689C35.9889 55.6753 34.5661 58.2258 34.453 59.8239C34.4215 59.9984 34.4268 60.1775 34.4686 60.3499C34.5103 60.5222 34.5876 60.6839 34.6955 60.8248C34.8201 60.9343 34.967 61.0156 35.1261 61.063C35.2852 61.1104 35.4527 61.1227 35.617 61.0992C37.1368 61.0992 39.6104 59.6948 42.763 56.5793C42.9142 56.4442 43.1099 56.3695 43.3127 56.3694C43.4132 56.3693 43.5126 56.3896 43.605 56.4289C43.6974 56.4682 43.7809 56.5258 43.8504 56.5982C43.9199 56.6706 43.974 56.7563 44.0094 56.8502C44.0448 56.944 44.0608 57.0441 44.0564 57.1443C44.0564 61.4543 44.9133 64.6667 46.0935 66.1033C46.3105 66.4279 46.6379 66.663 47.0151 66.7652C47.1699 66.7597 47.3211 66.7172 47.4561 66.6414C47.5912 66.5656 47.706 66.4586 47.7911 66.3293C48.745 65.1994 49.4887 62.3906 49.5695 57.451C49.5713 57.3265 49.6031 57.2044 49.6622 57.0948C49.7213 56.9852 49.806 56.8914 49.9091 56.8214C49.9925 56.7641 50.0866 56.7239 50.1859 56.7034C50.2851 56.6829 50.3874 56.6824 50.4869 56.7019C50.5863 56.7215 50.6808 56.7607 50.7648 56.8172C50.8488 56.8738 50.9207 56.9466 50.9761 57.0313C53.4012 60.6311 55.8264 62.3099 57.5401 62.5843C57.9946 62.6869 58.4712 62.6057 58.8658 62.3583C59.0243 62.2174 59.1487 62.0426 59.2299 61.8469C59.3111 61.6513 59.3469 61.4398 59.3347 61.2283C59.3347 59.6141 58.1868 57.225 55.1473 54.2064C55.0722 54.1366 55.013 54.0514 54.974 53.9567C54.9349 53.8619 54.9168 53.7599 54.921 53.6575C54.9252 53.4548 55.0088 53.2619 55.1539 53.12C55.299 52.9782 55.494 52.8988 55.697 52.8988C58.7224 53.1448 61.7671 52.8162 64.67 51.9303C65.0903 51.7366 65.3167 51.5751 65.3328 51.4299C65.349 51.2846 65.2197 51.1231 64.8801 50.8326Z" fill="#FECC00"/>
<path fill-rule="evenodd" clip-rule="evenodd" d="M63.5382 51.22C62.7323 51.4355 61.9106 51.5866 61.0807 51.672C59.3253 51.8635 57.5596 51.9444 55.794 51.9141H55.6808C55.4392 51.9095 55.199 51.9527 54.9742 52.0414C54.7494 52.1301 54.5445 52.2624 54.3713 52.4307C54.0646 52.7452 53.8761 53.1557 53.8377 53.5929C53.8299 53.6411 53.8299 53.6901 53.8377 53.7382C53.8317 53.9829 53.8814 54.2258 53.9832 54.4485C54.0772 54.677 54.2144 54.8853 54.3874 55.0619C55.5142 56.1411 56.5026 57.3557 57.3299 58.6778C57.8612 59.4684 58.1633 60.3901 58.2029 61.3413C58.2213 61.4373 58.2213 61.5359 58.2029 61.6319H58.1221C57.9831 61.6563 57.8408 61.6563 57.7017 61.6319C56.6732 61.3837 55.7298 60.8654 54.9694 60.1306C53.7721 59.0685 52.7275 57.8463 51.8653 56.4986C51.5911 56.0905 51.1672 55.8064 50.6851 55.7076C50.2035 55.6122 49.7037 55.7108 49.2947 55.982C49.0414 56.159 48.8314 56.3907 48.6803 56.66C48.5416 56.9189 48.4642 57.206 48.454 57.4994C48.4562 59.3183 48.2938 61.1336 47.9689 62.9233C47.8337 63.8736 47.5035 64.7859 46.9989 65.6029L46.8857 65.5061C46.2081 64.5421 45.7552 63.439 45.56 62.2776C45.2108 60.6441 45.0535 58.9756 45.0911 57.3057V57.1927C45.0958 56.9514 45.0525 56.7116 44.9637 56.4872C44.8749 56.2627 44.7423 56.0581 44.5738 55.8852C44.2646 55.5775 43.8598 55.384 43.4259 55.3363H43.2642C43.0556 55.3357 42.8481 55.3684 42.6498 55.4332H42.5528C42.3351 55.5316 42.1334 55.6622 41.9546 55.8206C40.8024 56.9906 39.5288 58.035 38.1553 58.9361C37.3798 59.4976 36.4824 59.8682 35.5362 60.0176V59.9046C35.6986 58.9101 36.0978 57.969 36.7002 57.1604C37.6043 55.8106 38.6623 54.5701 39.8529 53.4638C40.1965 53.1323 40.3992 52.6814 40.4187 52.2047C40.4247 51.9608 40.382 51.7182 40.2932 51.491C40.2043 51.2637 40.0712 51.0564 39.9014 50.881C39.5747 50.5492 39.1376 50.3482 38.6726 50.316C36.9766 50.2767 35.2903 50.0494 33.6446 49.638C32.6306 49.4736 31.6744 49.0573 30.8638 48.4274C30.8148 48.3785 30.7714 48.3243 30.7344 48.2659C30.8069 48.1625 30.8941 48.07 30.9931 47.9915C31.9592 47.3398 33.0683 46.9301 34.2266 46.797C36.0239 46.5246 37.8467 46.4596 39.6589 46.6033C40.0999 46.632 40.5365 46.5001 40.8876 46.232L40.9846 46.1513C41.3484 45.8344 41.5745 45.3887 41.6151 44.9083C41.6341 44.6726 41.601 44.4357 41.5181 44.2142C41.4513 43.9873 41.3354 43.7779 41.1786 43.6008C40.0366 42.2234 39.0599 40.7172 38.2685 39.1132C37.7316 38.1226 37.4588 37.0108 37.4763 35.8847C37.4805 35.7623 37.5079 35.6417 37.5571 35.5295C37.6745 35.5061 37.7954 35.5061 37.9128 35.5295C38.912 35.8403 39.8178 36.3951 40.5481 37.1438C41.7592 38.2923 42.8137 39.5948 43.6846 41.018C43.9641 41.4239 44.3847 41.7115 44.8648 41.8251C45.3442 41.9235 45.8432 41.8308 46.2552 41.5668C46.4229 41.4585 46.5706 41.3219 46.6917 41.1633C46.8234 40.9889 46.922 40.7919 46.9827 40.5821C47.6087 38.4568 48.4146 36.3885 49.3917 34.3996C49.8751 33.2696 50.6106 32.2648 51.5419 31.4616C51.6551 31.6501 51.7472 31.8504 51.8168 32.0589C52.2058 33.4727 52.2885 34.953 52.0593 36.4012C51.8239 38.2739 51.3287 40.1048 50.5881 41.8412C50.4029 42.2967 50.4029 42.8063 50.5881 43.2618C50.6807 43.4864 50.817 43.6905 50.989 43.8623C51.1611 44.034 51.3655 44.1701 51.5904 44.2626C51.9217 44.4038 52.2876 44.4431 52.6413 44.3756C52.9867 44.3097 53.3062 44.1474 53.5629 43.9075C55.0429 42.548 56.6696 41.3569 58.4131 40.3561C59.3853 39.7427 60.4983 39.3871 61.6466 39.323H61.9053C61.8816 39.5169 61.8327 39.7068 61.7598 39.888C61.2548 40.9326 60.4927 41.8324 59.5448 42.5031C58.2599 43.4649 56.8301 44.2168 55.309 44.7307C55.0805 44.8096 54.8699 44.933 54.6895 45.0937C54.5091 45.2544 54.3625 45.4493 54.2581 45.667C54.0712 46.1221 54.0712 46.6324 54.2581 47.0875C54.3512 47.3346 54.4943 47.5599 54.6784 47.7494V47.8301C54.9037 48.0367 55.1754 48.1862 55.4706 48.2659C57.413 48.7336 59.3289 49.3048 61.2101 49.977C62.0261 50.2702 62.8158 50.632 63.5705 51.0586L63.5382 51.22ZM56.9257 46.571C58.3216 46.0156 59.6373 45.2774 60.8382 44.3756C62.0961 43.4704 63.094 42.2514 63.7322 40.8404C63.898 40.4508 63.9963 40.036 64.0232 39.6136C64.0636 39.1846 63.9794 38.7531 63.7807 38.3706C63.5762 37.9841 63.2533 37.6731 62.8592 37.4828C62.498 37.32 62.1075 37.2321 61.7113 37.2245C60.1803 37.2649 58.6866 37.7046 57.3784 38.4998C55.9038 39.3296 54.5077 40.2913 53.2072 41.3731C53.7796 39.8077 54.1755 38.1834 54.3874 36.5304C54.6401 34.76 54.5189 32.9565 54.0317 31.2356C53.8897 30.8534 53.711 30.4858 53.4982 30.138C53.2733 29.7954 52.968 29.5128 52.609 29.3147H52.512C52.1609 29.1623 51.771 29.1228 51.3964 29.2017C51.0402 29.2833 50.7045 29.4372 50.4102 29.6537C49.1772 30.652 48.2015 31.9306 47.5647 33.3826C46.6408 35.2757 45.873 37.2408 45.269 39.2584C44.3325 37.8951 43.2481 36.6391 42.0355 35.5134C41.0226 34.4961 39.7641 33.7567 38.3816 33.3665C38.028 33.3121 37.6682 33.3121 37.3146 33.3665H37.1852C36.8531 33.4161 36.5373 33.5433 36.2637 33.7377C35.9552 33.9688 35.7104 34.2743 35.5523 34.6256C35.4115 34.9596 35.3242 35.3137 35.2936 35.6748C35.2402 37.178 35.5801 38.669 36.2799 40.001C37.0355 41.5674 37.9628 43.0454 39.0445 44.4079C37.2942 44.3091 35.5383 44.3957 33.8062 44.6662C32.295 44.8572 30.8526 45.4111 29.6027 46.2804C29.3283 46.4957 29.0884 46.7515 28.8913 47.0391C28.7055 47.3259 28.5892 47.652 28.5518 47.9915C28.5202 48.3524 28.5873 48.715 28.7458 49.0408C28.8955 49.3439 29.0919 49.6217 29.3278 49.864C30.3736 50.7837 31.6366 51.4225 32.9979 51.7204C34.5864 52.1201 36.2115 52.3581 37.8481 52.4307C36.735 53.509 35.7429 54.7052 34.8895 55.9982C34.0847 57.1162 33.5633 58.4123 33.3697 59.7755C33.3273 60.0753 33.3273 60.3796 33.3697 60.6795C33.453 61.0085 33.6137 61.3129 33.8386 61.5673C34.0725 61.8099 34.369 61.9831 34.6954 62.0677C34.9849 62.1462 35.2858 62.1735 35.5847 62.1484C36.9183 62.0022 38.1926 61.5189 39.287 60.7441C40.5782 59.8977 41.7855 58.9302 42.8924 57.8546C42.8938 59.4825 43.0672 61.1057 43.4097 62.6973C43.6951 64.2115 44.3319 65.6378 45.269 66.862C45.4669 67.1201 45.7011 67.3485 45.9642 67.54C46.2304 67.7315 46.5429 67.8485 46.8695 67.879C47.2247 67.9181 47.5829 67.8387 47.8881 67.653C48.1533 67.5031 48.3889 67.3062 48.5833 67.0719C49.3875 65.976 49.9145 64.7022 50.1192 63.3591C50.4164 61.7606 50.5894 60.1415 50.6366 58.5164C51.4901 59.7067 52.4834 60.7906 53.5952 61.7449C54.6587 62.7219 55.9651 63.3964 57.3784 63.6981C57.7427 63.7542 58.1135 63.7542 58.4778 63.6981C58.8586 63.6315 59.2186 63.4767 59.5287 63.2461C59.8275 63.0066 60.0611 62.6957 60.2077 62.3422C60.3319 62.0054 60.4028 61.6514 60.4179 61.2929C60.3554 59.9465 59.931 58.6417 59.1892 57.5156C58.4055 56.255 57.4836 55.0856 56.4407 54.0288C58.0611 54.0361 59.6805 53.9499 61.2909 53.7705C62.6063 53.6625 63.8979 53.3578 65.1226 52.8665C65.3555 52.759 65.5775 52.6292 65.7855 52.4791C66.0954 52.2673 66.3101 51.9429 66.3837 51.5751C66.414 51.3834 66.4022 51.1874 66.3492 51.0006C66.2962 50.8139 66.2031 50.6409 66.0765 50.4936C65.9191 50.3015 65.7401 50.1282 65.543 49.977C64.4436 49.1599 63.2212 48.5224 61.9215 48.0884C60.6119 47.6202 58.9466 47.1037 56.9257 46.571Z" fill="#33001A"/>
</g>
<defs>
<clipPath id="clip0_167_1024">
<rect width="95" height="97" fill="white"/>
</clipPath>
</defs>
</svg>
