<svg width="24" height="32" viewBox="0 0 24 32" fill="none" xmlns="http://www.w3.org/2000/svg">
<path d="M20.9485 18.7586C20.3151 18.9115 19.2668 19.0754 18.1312 19.1855C17.6663 19.7895 16.8686 20.2503 15.7369 20.3148C15.4591 20.3372 15.1607 20.3348 14.8412 20.3078C14.0654 20.2418 13.1395 20.0484 12.1225 19.847C12.0311 19.8392 11.9647 19.8106 11.8734 19.8029C11.6243 19.7588 11.4403 19.4902 11.4844 19.2411C11.5326 18.9463 11.8009 18.7623 12.0956 18.8105C12.187 18.8182 12.2533 18.8468 12.3447 18.8546C13.6565 19.1041 14.8979 19.3704 15.6853 19.2995C17.1651 19.1956 17.6743 18.3424 17.6698 17.5837C17.6538 16.9619 17.2935 16.3336 16.5594 16.3171C15.5059 16.2735 14.3519 16.0605 13.1979 15.8474C11.8861 15.5979 10.5041 15.3656 9.5131 15.3963C8.95766 15.441 7.99311 15.7039 6.97893 16.0083C6.74292 16.0803 6.27106 16.224 6.27106 16.224L3.68677 16.0733C3.45852 16.0539 3.28531 16.1999 3.29061 16.4074L2.78097 22.1327C2.76157 22.3609 2.90764 22.5342 3.11506 22.5289L5.67059 22.7461C7.59559 23.6222 9.94831 24.6035 11.3762 24.84C14.2775 25.3166 20.2157 22.5118 21.9477 21.6017C23.6838 20.646 22.7786 18.3168 20.9484 18.7585L20.9485 18.7586Z" fill="white"/>
<path d="M20.6613 2.66409C20.4441 2.14276 20.1309 1.67033 19.7392 1.27326C19.3472 0.875002 18.8851 0.558512 18.3779 0.341001C17.852 0.114559 17.288 -0.0013468 16.7185 1.18067e-05C15.9195 1.18067e-05 15.1401 0.226778 14.4627 0.655113C14.3006 0.757578 14.1467 0.870121 14.0008 0.992743C13.855 0.870121 13.701 0.757578 13.5389 0.655113C12.8616 0.226778 12.0821 1.18067e-05 11.2831 1.18067e-05C10.7078 1.18067e-05 10.1504 0.114235 9.62368 0.341001C9.11483 0.559368 8.65621 0.873481 8.26241 1.27326C7.87023 1.66989 7.55695 2.14242 7.34032 2.66409C7.11506 3.20665 7 3.7828 7 4.37575C7 4.93511 7.1102 5.51798 7.32897 6.11093C7.5121 6.60646 7.77463 7.12046 8.11008 7.6395C8.64162 8.4609 9.37249 9.31757 10.28 10.186C11.7839 11.6255 13.2732 12.62 13.3364 12.6603L13.7204 12.9156C13.8906 13.0281 14.1094 13.0281 14.2795 12.9156L14.6636 12.6603C14.7268 12.6183 16.2145 11.6255 17.72 10.186C18.6275 9.31757 19.3584 8.4609 19.8899 7.6395C20.2254 7.12046 20.4895 6.60646 20.671 6.11093C20.8898 5.51798 21 4.93511 21 4.37575C21.0016 3.7828 20.8865 3.20665 20.6613 2.66409V2.66409Z" fill="white"/>
</svg>
