<svg width="18" height="18" viewBox="0 0 18 18" fill="none" xmlns="http://www.w3.org/2000/svg">
<path d="M6.32026 16.655V13.9423C6.32026 13.2499 6.8946 12.6885 7.60307 12.6885H10.1929C10.5331 12.6885 10.8594 12.8206 11.1 13.0557C11.3405 13.2909 11.4757 13.6098 11.4757 13.9423V16.655C11.4735 16.9429 11.589 17.2198 11.7966 17.4241C12.0041 17.6284 12.2864 17.7433 12.581 17.7433H14.3479C15.1731 17.7454 15.9652 17.4264 16.5495 16.8568C17.1337 16.2872 17.4621 15.5138 17.4621 14.7073V6.9792C17.4621 6.32766 17.1666 5.70965 16.6553 5.29164L10.6447 0.599607C9.59912 -0.223067 8.10106 -0.196505 7.08672 0.662693L1.21326 5.29164C0.677781 5.69733 0.357735 6.31717 0.341919 6.9792V14.6994C0.341919 16.3805 1.73621 17.7433 3.45615 17.7433H5.18268C5.79445 17.7433 6.29163 17.2609 6.29606 16.6629L6.32026 16.655Z" fill="#3872B2"/>
</svg>
