<svg width="19" height="18" viewBox="0 0 19 18" fill="none" xmlns="http://www.w3.org/2000/svg">
<path d="M2.19104 18C2.19104 18 0.69104 18 0.69104 16.5C0.69104 15 2.19104 10.5 9.69104 10.5C17.191 10.5 18.691 15 18.691 16.5C18.691 18 17.191 18 17.191 18H2.19104ZM9.69104 9C10.8845 9 12.0291 8.52589 12.873 7.68198C13.7169 6.83807 14.191 5.69347 14.191 4.5C14.191 3.30653 13.7169 2.16193 12.873 1.31802C12.0291 0.474106 10.8845 0 9.69104 0C8.49757 0 7.35297 0.474106 6.50906 1.31802C5.66515 2.16193 5.19104 3.30653 5.19104 4.5C5.19104 5.69347 5.66515 6.83807 6.50906 7.68198C7.35297 8.52589 8.49757 9 9.69104 9Z" fill="#3872B2"/>
</svg>
