<svg width="18" height="18" viewBox="0 0 18 18" fill="none" xmlns="http://www.w3.org/2000/svg">
<path d="M18 9C18 13.9711 13.9711 18 9 18C4.02891 18 0 13.9711 0 9C0 4.02891 4.02891 0 9 0C13.9711 0 18 4.02891 18 9ZM6.25078 2.22152L6.60234 2.8343C6.69727 3.00445 6.75 3.19676 6.75 3.39258V4.84805C6.75 4.98516 6.80625 5.11875 6.90117 5.21367C7.12266 5.43516 7.48125 5.38242 7.67461 5.17148L8.15273 4.57383C8.31797 4.36641 8.60625 4.30312 8.84531 4.42266L9.37969 4.68984C9.49922 4.74961 9.60117 4.78125 9.76641 4.78125C9.99492 4.78125 10.2164 4.68984 10.3781 4.52813L10.5152 4.39102C10.6172 4.25742 10.7754 4.26094 10.902 4.32773L11.932 4.84102C12.2027 4.97813 12.375 5.25586 12.375 5.5582C12.375 5.92734 12.1254 6.25078 11.7668 6.33867L10.5223 6.65156C10.2621 6.71484 9.99141 6.7043 9.70664 6.61992L8.58164 6.24727C8.49727 6.20859 8.37422 6.1875 8.25469 6.1875C8.00859 6.1875 7.73789 6.26836 7.57266 6.41602L6.1875 7.45312C5.83242 7.72031 5.625 8.13516 5.625 8.57812V9.5625C5.625 10.4941 6.38086 11.25 7.3125 11.25H8.4375C8.74687 11.25 9 11.5031 9 11.8125V13.5C9 14.1223 9.50273 14.625 10.125 14.625C10.4801 14.625 10.8141 14.4598 11.025 14.175L11.925 12.9762C12.2168 12.5543 12.375 12.1113 12.375 11.6262V11.2008C12.375 11.0637 12.4664 10.9441 12.6 10.9125L12.7863 10.8668C13.2047 10.7613 13.5 10.3852 13.5 9.95273C13.5 9.67148 13.4016 9.46406 13.2258 9.28828L12.048 8.11055C11.8863 7.94883 11.8863 7.76953 12.048 7.63945C12.2484 7.43906 12.5437 7.36875 12.8145 7.46016L13.3102 7.62539C13.7426 7.73789 14.2137 7.57266 14.4176 7.16484C14.5406 6.91875 14.8113 6.78867 15.0504 6.84141L16.0453 7.03477C15.1559 3.95156 12.3574 1.6875 9 1.6875C8.02617 1.6875 7.06992 1.87734 6.25078 2.22152Z" fill="#3872B2"/>
</svg>
