<svg width="181" height="165" viewBox="0 0 181 165" fill="none" xmlns="http://www.w3.org/2000/svg">
<g clip-path="url(#clip0_264_2636)">
<path d="M29.3149 18.7657C35.8328 13.8783 43.4522 11.0423 49.7253 13.0033C50.3067 13.0033 52.5099 14.3308 51.9897 15.1152C51.4695 15.8996 50.0619 15.5376 49.4805 15.6281C46.1981 15.7869 43.0229 16.8304 40.3004 18.645H76.1638C71.8031 14.6423 66.5687 11.6801 60.8637 9.9864C55.8984 8.56999 50.6917 8.16959 45.5636 8.80979C40.4297 9.43886 35.4593 11.0041 30.9062 13.4257C28.1886 14.9454 25.6356 16.7347 23.2867 18.7657H29.3149Z" fill="#C73E20"/>
<path d="M157.009 18.7647L155.694 17.6786C149.668 12.7923 142.472 9.51002 134.794 8.14507C127.521 6.87899 120.028 8.06954 113.527 11.524C110.059 13.388 106.952 15.8389 104.347 18.7647H157.009Z" fill="#C73E20"/>
<path d="M99.6341 18.7659C116.648 -3.31817 145.045 1.23741 162.487 18.7659H167.566C165.279 16.1273 162.749 13.7034 160.008 11.5252C153.058 5.87526 144.739 2.10161 135.865 0.573685C127.073 -0.978926 118.007 0.468271 110.161 4.67673C103.974 8.07547 98.7215 12.9118 94.8605 18.7659H99.6341Z" fill="#33001A"/>
<path d="M17.7787 18.7646C34.9454 1.5077 62.9445 -1.11704 81.4576 18.7646H86.3843C80.3651 11.1062 72.0763 5.48589 62.6691 2.68431C56.8861 1.05485 50.8307 0.582989 44.8598 1.29652C38.8782 2.02035 33.0868 3.84178 27.7849 6.66668C22.0432 9.7356 16.9281 13.8273 12.6991 18.7345L17.7787 18.7646Z" fill="#33001A"/>
<path d="M99.6342 18.7648H104.438C107.044 15.839 110.151 13.3881 113.618 11.5241C120.093 8.08999 127.551 6.90001 134.794 8.14516C142.472 9.51011 149.668 12.7924 155.694 17.6787L157.009 18.7648H162.487C145.045 1.23636 116.648 -3.31923 99.6342 18.7648Z" fill="#33001A"/>
<path d="M23.2867 18.7645C25.6702 16.7704 28.254 15.0216 30.998 13.5452C35.5596 11.1656 40.5296 9.64142 45.6554 9.04998C50.7835 8.40978 55.9902 8.81018 60.9555 10.2266C66.6605 11.9203 71.8949 14.8825 76.2556 18.8852H81.5494C62.9445 -1.11713 34.9454 1.50762 17.7787 18.7645H23.2867Z" fill="#33001A"/>
<path d="M52.0203 15.0846C52.5405 14.3002 50.3373 13.0632 49.7559 12.9727C43.4828 11.0117 35.8634 13.8477 29.3456 18.7351H40.2086C42.9311 16.9204 46.1063 15.8769 49.3887 15.7182C50.0619 15.5371 51.6837 15.4466 52.0203 15.0846Z" fill="white"/>
<path d="M78.826 107.493C78.9481 107.295 79.0809 107.104 79.2238 106.92L78.826 107.493Z" fill="#C73E20"/>
<path d="M93.2081 102.365C93.6059 102.365 93.9731 102.607 94.3709 102.727C93.9731 102.576 93.6059 102.576 93.2081 102.365Z" fill="#C73E20"/>
<path d="M79.744 106.286C79.9837 105.991 80.239 105.709 80.509 105.441C80.2642 105.592 79.9888 105.984 79.744 106.286Z" fill="#C73E20"/>
<path d="M94.8605 102.938C95.3807 103.149 95.8703 103.36 96.3905 103.631C95.9621 103.36 95.4725 103.149 94.8605 102.938Z" fill="#C73E20"/>
<path d="M96.6353 103.692L98.2571 104.658L96.6353 103.692Z" fill="#C73E20"/>
<path d="M91.4639 101.973L92.5349 102.214L91.4639 101.973Z" fill="#C73E20"/>
<path d="M86.17 102.185L87.2411 101.943L86.17 102.185Z" fill="#C73E20"/>
<path d="M84.3341 102.788C84.7316 102.61 85.1405 102.459 85.5581 102.335C85.1405 102.459 84.7316 102.61 84.3341 102.788Z" fill="#C73E20"/>
<path d="M81.0292 104.9L82.039 104.085L81.0292 104.9Z" fill="#C73E20"/>
<path d="M116.862 90.5088C116.862 90.5088 116.281 90.5088 116.281 90.8105C116.281 91.1122 116.77 90.6596 116.862 90.5088Z" fill="#C73E20"/>
<path d="M66.1882 91.625H66.0046C65.7291 91.6853 65.9127 91.6552 66.1882 91.625Z" fill="#C73E20"/>
<path d="M108.508 102.576C107.634 103.543 106.705 104.46 105.724 105.322C106.705 104.46 107.634 103.543 108.508 102.576Z" fill="#C73E20"/>
<path d="M71.2066 99.5589C70.5334 98.6236 69.8908 97.7186 69.34 96.8135C69.8908 97.6582 70.5334 98.5633 71.2066 99.5589Z" fill="#C73E20"/>
<path d="M111.262 99.3779C110.507 100.343 109.681 101.349 108.784 102.395C109.702 101.349 110.528 100.343 111.262 99.3779Z" fill="#C73E20"/>
<path d="M105.479 105.593C104.469 106.498 103.398 107.373 102.419 108.157C103.398 107.312 104.469 106.438 105.479 105.593Z" fill="#C73E20"/>
<path d="M113.618 96.0898C112.937 97.1323 112.202 98.1393 111.415 99.1068C112.202 98.1393 112.937 97.1323 113.618 96.0898Z" fill="#C73E20"/>
<path d="M73.4404 102.274C72.6448 101.369 71.9104 100.464 71.2372 99.5586C71.9308 100.464 72.6652 101.369 73.4404 102.274Z" fill="#C73E20"/>
<path d="M98.7467 105.02C99.1139 105.261 99.4505 105.532 99.7871 105.804L98.7467 105.02Z" fill="#C73E20"/>
<path d="M76.0108 104.99C75.1234 104.145 74.3278 103.27 73.5322 102.365C74.3278 103.27 75.154 104.145 76.0108 104.99Z" fill="#C73E20"/>
<path d="M78.7954 107.464C77.8774 106.74 76.99 105.926 76.1026 105.081C76.99 105.926 77.8774 106.74 78.7954 107.464Z" fill="#C73E20"/>
<path d="M82.4369 103.782C82.9228 103.46 83.4345 103.178 83.9669 102.938C83.4345 103.178 82.9228 103.46 82.4369 103.782Z" fill="#C73E20"/>
<path d="M93.0857 37.2897C92.6552 37.5109 92.183 37.6419 91.6987 37.6745C91.2144 37.7071 90.7284 37.6406 90.2715 37.4791C89.8145 37.3176 89.3964 37.0646 89.0434 36.736C88.6904 36.4075 88.4101 36.0105 88.2203 35.57C85.3763 29.233 81.2773 23.5198 76.1638 18.7656H40.178C32.5462 24.0688 26.4243 31.2161 22.3993 39.5222C18.6967 47.0344 19.7371 54.5768 18.3601 54.3052C8.17025 55.3612 10.7713 39.492 20.8387 26.8812C23.2977 23.8273 26.1467 21.0995 29.315 18.7656H23.1949C15.5856 25.2351 10.233 33.9003 7.89484 43.5347C2.44801 65.1361 29.927 91.6248 55.0803 115.851C68.575 128.884 81.4576 141.284 88.7405 152.507C95.8703 141.012 109.916 128.371 124.757 115.157C149.757 92.8014 177.053 68.3642 173.503 47.2757C171.537 36.17 165.704 26.0878 157.009 18.7656H104.438C100.215 23.6195 96.9653 29.2195 94.8605 35.2683C94.5391 36.1332 93.9078 36.8522 93.0857 37.2897ZM165.241 54.7578C165.792 49.3574 163.925 45.1035 167.383 44.8924C172.034 43.3839 171.147 52.7968 170.902 55.5723C169.862 62.2096 155.326 83.4489 151.104 82.0611C150.92 81.9706 164.445 59.7056 165.241 54.7578ZM57.5589 37.531C58.565 36.1507 59.9261 35.0597 61.502 34.3704C63.0779 33.681 64.8116 33.4182 66.5248 33.609C68.2772 33.5587 70.0201 33.8802 71.6356 34.5516C73.2511 35.2231 74.7014 36.2288 75.8884 37.5008C76.4698 38.0741 75.8884 39.2507 75.0928 38.949C72.3641 37.9208 69.4363 37.5084 66.5248 37.7422C63.8319 38.0439 61.2003 39.6127 58.4769 39.2507C58.2804 39.2361 58.0909 39.1726 57.9262 39.066C57.7614 38.9594 57.6268 38.8133 57.535 38.6414C57.4433 38.4695 57.3973 38.2774 57.4015 38.0832C57.4057 37.8889 57.4598 37.6989 57.5589 37.531ZM54.4989 89.9655C52.2412 90.9337 49.8003 91.4171 47.3385 91.3835C44.8861 91.4212 42.4544 90.9375 40.2086 89.9655C39.0596 89.64 38.0491 88.9547 37.3299 88.0132C36.6107 87.0716 36.2217 85.9249 36.2217 84.7462C36.2217 83.5675 36.6107 82.4208 37.3299 81.4792C38.0491 80.5377 39.0596 79.8524 40.2086 79.5269C42.4544 78.5549 44.8861 78.0712 47.3385 78.1089C49.8003 78.0753 52.2412 78.5587 54.4989 79.5269C55.6479 79.8524 56.6584 80.5377 57.3776 81.4792C58.0968 82.4208 58.4858 83.5675 58.4858 84.7462C58.4858 85.9249 58.0968 87.0716 57.3776 88.0132C56.6584 88.9547 55.6479 89.64 54.4989 89.9655ZM58.1403 67.0066C57.1152 66.1153 56.2933 65.0199 55.7289 63.7927C55.1646 62.5654 54.8705 61.2341 54.8661 59.8866C54.9382 57.2111 56.0838 54.6731 58.0514 52.8293C60.0191 50.9855 62.6482 49.9865 65.362 50.0513C67.7562 50.01 70.0912 50.7865 71.9708 52.2493C73.8505 53.712 75.1589 55.7708 75.6742 58.0764C76.5053 59.6221 76.7019 61.4236 76.2235 63.1083C75.7451 64.7929 74.6281 66.2318 73.1038 67.1272C73.598 67.4816 74.0132 67.9322 74.3238 68.4512C74.6343 68.9701 74.8336 69.5463 74.9092 70.1442C74.9133 70.2591 74.8944 70.3737 74.8535 70.4814C74.8127 70.5891 74.7507 70.6878 74.6711 70.7718C74.5915 70.8559 74.4959 70.9237 74.3897 70.9713C74.2836 71.0189 74.169 71.0454 74.0524 71.0493C71.5738 71.0493 69.799 68.334 67.2898 67.7306C64.7805 67.1272 61.7817 67.7306 59.2113 66.9161L58.1403 67.0066ZM92.5655 127.164C90.0257 127.315 88.2509 125.203 85.7723 127.436C85.6137 127.564 85.4152 127.634 85.2103 127.634C85.0055 127.634 84.807 127.564 84.6484 127.436C84.4899 127.308 84.3811 127.13 84.3405 126.932C84.3 126.734 84.3301 126.528 84.4258 126.35C86.0783 123.333 91.5557 122.277 93.2081 125.958C93.2748 126.076 93.3106 126.209 93.3122 126.344C93.3139 126.479 93.2814 126.613 93.2176 126.732C93.1538 126.852 93.0608 126.954 92.947 127.03C92.8331 127.105 92.702 127.151 92.5655 127.164ZM120.84 92.0472C120.133 94.5184 119.028 96.8614 117.566 98.9862C112.241 107.253 101.164 117.661 91.0355 117.661C80.9068 117.661 70.3804 107.705 65.3314 99.5594C63.9637 97.4434 62.9319 95.134 62.2713 92.7109C61.5675 89.694 62.2713 87.3106 64.9029 86.677C67.3194 86.4517 69.7308 87.1541 71.635 88.638C79.8052 92.2282 85.4969 94.0987 91.0967 93.978C96.6965 93.8574 102.541 91.7153 111.048 87.3106C112.118 86.5621 113.335 86.0415 114.62 85.7818C115.906 85.5221 117.232 85.529 118.514 85.8021C120.871 86.7072 121.574 89.0001 120.84 92.0472ZM136.324 78.1089C138.776 78.0712 141.208 78.5549 143.454 79.5269C144.603 79.8524 145.613 80.5377 146.332 81.4792C147.052 82.4208 147.44 83.5675 147.44 84.7462C147.44 85.9249 147.052 87.0716 146.332 88.0132C145.613 88.9547 144.603 89.64 143.454 89.9655C141.193 90.9073 138.763 91.3925 136.308 91.3925C133.854 91.3925 131.424 90.9073 129.163 89.9655C128.014 89.64 127.004 88.9547 126.285 88.0132C125.565 87.0716 125.176 85.9249 125.176 84.7462C125.176 83.5675 125.565 82.4208 126.285 81.4792C127.004 80.5377 128.014 79.8524 129.163 79.5269C131.421 78.5587 133.862 78.0753 136.324 78.1089ZM127.633 60.0072C127.629 61.3519 127.338 62.6806 126.779 63.9072C126.22 65.1337 125.406 66.2308 124.39 67.1272C122.451 66.2999 120.379 65.8197 118.27 65.7093C116.452 66.4603 114.761 67.4774 113.251 68.7262C111.813 69.9028 110.895 71.5621 109.12 72.0147C108.972 72.0476 108.819 72.0462 108.672 72.0107C108.524 71.9752 108.388 71.9065 108.272 71.81C108.156 71.7135 108.065 71.5918 108.005 71.4546C107.945 71.3173 107.918 71.1683 107.927 71.0191C108.02 69.6786 108.634 68.425 109.64 67.5194C108.448 66.9649 107.442 66.0844 106.742 64.9827C106.043 63.881 105.678 62.6044 105.693 61.3045C105.701 59.7952 106.194 58.3273 107.101 57.111C107.792 55.0331 109.139 53.2275 110.944 51.9575C112.75 50.6875 114.92 50.0196 117.137 50.0513C119.851 49.9865 122.48 50.9855 124.448 52.8293C126.416 54.6731 127.561 57.2111 127.633 59.8866V60.0072ZM102.541 39.2205C104.72 36.5924 107.837 34.887 111.252 34.4549C114.667 34.0228 118.12 34.8969 120.901 36.8975C121.19 37.2065 121.372 37.5977 121.421 38.0149C121.471 38.4322 121.385 38.8542 121.177 39.2205C121.103 39.3626 121.01 39.4945 120.901 39.6127C120.695 39.8585 120.417 40.0364 120.106 40.1227C119.794 40.2089 119.463 40.1994 119.157 40.0954C114.414 38.5266 107.743 36.6561 103.153 39.8842C102.633 40.0653 102.266 39.4619 102.541 39.2205Z" fill="#C73E20"/>
<path d="M80.6926 108.881C83.6463 111.152 87.234 112.479 90.9743 112.682C93.6205 112.544 96.1977 111.8 98.5019 110.51C93.2387 104.778 86.0477 103.179 80.6926 108.881Z" fill="#C73E20"/>
<path d="M100.369 106.318C100.669 106.574 100.955 106.846 101.225 107.133C100.955 106.846 100.669 106.574 100.369 106.318Z" fill="#C73E20"/>
<path d="M102.205 108.187L101.746 107.704L102.205 108.187Z" fill="#C73E20"/>
<path d="M86.3843 18.7656H81.4576C85.579 23.2422 88.9562 28.3333 91.4639 33.8503C93.3932 28.4416 96.1483 23.3548 99.6341 18.7656H95.0441C93.5915 20.9114 92.2831 23.1487 91.1273 25.4632C89.7212 23.1151 88.1356 20.8761 86.3843 18.7656Z" fill="#33001A"/>
<path d="M50.2455 121.523C65.5456 136.366 80.1724 150.365 85.6499 161.859C86.0091 162.701 86.6751 163.379 87.5165 163.76C87.9626 163.947 88.4431 164.042 88.9279 164.037C89.4128 164.033 89.8914 163.929 90.3339 163.734C90.7764 163.538 91.1731 163.255 91.4992 162.901C91.8253 162.548 92.0737 162.131 92.2289 161.678C96.7271 150.214 112.547 136.064 129.378 121.01C156.061 97.2967 184.856 71.3811 180.541 45.9181C178.82 35.8608 174.32 26.4658 167.536 18.7656H162.487C170.123 26.34 175.199 36.0549 177.022 46.5818C183.601 85.4401 100.981 129.487 88.8935 160.2C73.5934 128.039 -5.29383 80.8242 4.43703 42.5391C6.63569 33.5762 11.2447 25.3635 17.7787 18.7656H12.6991C7.05474 25.3644 3.03331 33.1598 0.948606 41.5436C-5.66103 67.6401 23.5315 95.7882 50.2455 121.523Z" fill="#33001A"/>
<path d="M157.009 18.7663C165.704 26.0884 171.537 36.1706 173.503 47.2764C177.053 68.395 149.757 92.8021 124.757 115.158C109.916 128.402 95.8703 141.013 88.7405 152.507C81.4576 141.284 68.575 128.885 55.0803 115.852C29.927 91.716 2.44802 65.1367 7.92545 43.4449C10.2637 33.8105 15.6163 25.1452 23.2255 18.6758H17.7787C11.2303 25.2989 6.62038 33.5446 4.43704 42.5398C-5.29382 80.8248 73.624 128.04 88.8935 160.201C100.981 129.488 183.601 85.4408 177.022 46.5825C175.199 36.0555 170.123 26.3406 162.487 18.7663H157.009Z" fill="#33001A"/>
<path d="M76.1638 18.7656C81.2773 23.5198 85.3763 29.233 88.2203 35.57C88.4101 36.0105 88.6903 36.4075 89.0434 36.736C89.3964 37.0646 89.8145 37.3176 90.2715 37.4791C90.7284 37.6406 91.2143 37.7071 91.6987 37.6745C92.183 37.6419 92.6552 37.5109 93.0857 37.2897C93.8963 36.8465 94.5161 36.1282 94.8299 35.2683C96.9439 29.2172 100.204 23.617 104.438 18.7656H99.6341C96.1483 23.3548 93.3932 28.4416 91.4639 33.8503C88.9562 28.3333 85.579 23.2422 81.4576 18.7656H76.1638Z" fill="#33001A"/>
<path d="M118.453 85.7716C117.171 85.4985 115.844 85.4916 114.559 85.7513C113.274 86.011 112.057 86.5316 110.987 87.2801C102.48 91.6848 96.6659 93.8268 91.0355 93.9475C85.4051 94.0682 79.744 92.1977 71.5738 88.6075C69.6696 87.1236 67.2582 86.4211 64.8418 86.6465C62.2714 87.3404 61.5063 89.6635 62.2102 92.6804C62.8707 95.1035 63.9026 97.4129 65.2702 99.5289C70.3498 107.644 80.8457 117.842 90.9743 117.631C101.103 117.419 112.18 107.101 117.505 98.835C118.967 96.7102 120.072 94.3672 120.779 91.896C121.574 88.9997 120.871 86.7069 118.453 85.7716ZM66.0046 91.6245H66.1882C65.9128 91.6547 65.7292 91.6848 66.0046 91.6245ZM116.281 90.8099C115.72 92.6903 114.863 94.472 113.741 96.0896C113.06 97.132 112.324 98.139 111.538 99.1065C111.547 99.1867 111.547 99.2677 111.538 99.3479C110.783 100.313 109.957 101.319 109.059 102.365L108.784 102.636C107.91 103.604 106.98 104.52 105.999 105.382C105.934 105.477 105.851 105.559 105.754 105.623C104.744 106.528 103.673 107.403 102.694 108.188L103.306 108.912C103.645 109.278 103.859 109.739 103.92 110.231C103.98 110.723 103.883 111.222 103.643 111.657C103.532 111.914 103.36 112.142 103.142 112.32C102.924 112.499 102.665 112.623 102.388 112.683C102.026 112.789 101.642 112.791 101.279 112.69C100.916 112.588 100.589 112.387 100.338 112.11C99.9212 111.551 99.4716 111.017 98.9915 110.511C96.6873 111.801 94.1101 112.544 91.4639 112.683C87.7236 112.479 84.1359 111.153 81.1823 108.881C80.5282 109.564 79.9344 110.301 79.4074 111.084C78.8872 111.868 77.4796 111.385 77.8468 110.39C78.2445 109.338 78.7467 108.327 79.3462 107.373C78.4282 106.649 77.5408 105.834 76.6534 104.99C75.7966 104.145 74.9704 103.27 74.1748 102.365C73.3792 101.46 72.6448 100.555 71.9716 99.6495C71.2984 98.7143 70.6558 97.8092 70.105 96.9041C69.0878 95.3829 68.2945 93.7273 67.7488 91.9865C68.5392 92.3737 69.3055 92.8069 70.0438 93.2838L70.4416 93.4648C79.2544 97.3265 85.4663 99.3177 91.8617 99.197C93.4951 99.1591 95.1225 98.9875 96.7271 98.6841C102.526 97.1965 108.08 94.9006 113.221 91.8658C115.332 90.7797 116.495 90.4177 116.923 90.5686C117.352 90.7194 116.923 90.5686 116.923 90.5686C116.923 90.5686 116.281 90.5082 116.281 90.8099Z" fill="#33001A"/>
<path d="M125.155 84.7458C125.243 85.9038 125.668 87.0122 126.379 87.938C127.09 88.8638 128.057 89.5677 129.163 89.9651C131.424 90.9069 133.854 91.3921 136.308 91.3921C138.763 91.3921 141.193 90.9069 143.454 89.9651C144.603 89.6396 145.613 88.9543 146.332 88.0127C147.051 87.0712 147.44 85.9245 147.44 84.7458C147.44 83.5671 147.051 82.4204 146.332 81.4788C145.613 80.5372 144.603 79.852 143.454 79.5265C141.208 78.5544 138.776 78.0708 136.324 78.1085C133.862 78.0749 131.421 78.5583 129.163 79.5265C128.057 79.9239 127.09 80.6277 126.379 81.5535C125.668 82.4793 125.243 83.5877 125.155 84.7458Z" fill="#D3799F"/>
<path d="M54.4683 79.5265C52.2106 78.5583 49.7697 78.0749 47.3079 78.1085C44.8555 78.0708 42.4238 78.5544 40.178 79.5265C39.029 79.852 38.0186 80.5372 37.2993 81.4788C36.5801 82.4204 36.1911 83.5671 36.1911 84.7458C36.1911 85.9245 36.5801 87.0712 37.2993 88.0127C38.0186 88.9543 39.029 89.6396 40.178 89.9651C42.4238 90.9371 44.8555 91.4207 47.3079 91.383C49.7697 91.4166 52.2106 90.9333 54.4683 89.9651C55.6173 89.6396 56.6278 88.9543 57.347 88.0127C58.0662 87.0712 58.4552 85.9245 58.4552 84.7458C58.4552 83.5671 58.0662 82.4204 57.347 81.4788C56.6278 80.5372 55.6173 79.852 54.4683 79.5265Z" fill="#D3799F"/>
<path d="M58.4769 39.2197C61.2003 39.5817 63.8319 38.0129 66.5248 37.7112C69.4363 37.4774 72.3641 37.8898 75.0928 38.918C75.8884 39.2197 76.4698 38.0431 75.8884 37.4699C74.7014 36.1979 73.2511 35.1921 71.6356 34.5206C70.0201 33.8492 68.2772 33.5277 66.5248 33.578C64.8116 33.3872 63.0779 33.65 61.502 34.3394C59.9261 35.0288 58.565 36.1197 57.5589 37.5C57.4598 37.668 57.4057 37.858 57.4015 38.0522C57.3973 38.2464 57.4433 38.4385 57.535 38.6104C57.6268 38.7823 57.7614 38.9285 57.9262 39.035C58.0909 39.1416 58.2804 39.2051 58.4769 39.2197Z" fill="#33001A"/>
<path d="M103.031 39.7932C107.621 36.5651 114.292 38.4356 119.035 40.0044C119.341 40.1084 119.672 40.1179 119.983 40.0317C120.295 39.9454 120.572 39.7675 120.779 39.5217C120.888 39.4035 120.98 39.2716 121.054 39.1295C121.263 38.7631 121.348 38.3412 121.299 37.9239C121.25 37.5067 121.067 37.1155 120.779 36.8064C117.998 34.8059 114.545 33.9318 111.13 34.3639C107.715 34.796 104.598 36.5013 102.419 39.1295C102.266 39.4614 102.633 40.0647 103.031 39.7932Z" fill="#33001A"/>
<path d="M101.225 107.132C100.955 106.845 100.669 106.573 100.369 106.318L99.7872 105.805C99.4506 105.533 99.114 105.262 98.7468 105.021L98.2571 104.658L96.6353 103.693C96.1151 103.422 95.6255 103.21 95.1053 102.999L94.5239 102.788C94.1261 102.788 93.7589 102.516 93.3611 102.426H92.6879L91.6169 102.185H90.9131H89.8421H89.1383H88.0673H87.3941L86.3231 102.426L85.7111 102.577C85.2935 102.701 84.8846 102.852 84.4871 103.029H84.1199C83.5875 103.27 83.0758 103.552 82.5899 103.874L82.1921 104.176L81.1823 104.99C80.9987 104.99 80.8457 105.352 80.6621 105.533C80.392 105.801 80.1367 106.083 79.8971 106.378C79.7135 106.589 79.5604 106.831 79.4074 107.042C79.2645 107.226 79.1317 107.417 79.0096 107.615L80.8457 108.973C86.2007 103.271 93.3917 104.87 98.655 110.602C99.9407 109.91 101.178 109.134 102.358 108.279L101.929 107.796L101.225 107.132Z" fill="#33001A"/>
<path d="M99.8484 112.109C100.1 112.386 100.426 112.587 100.789 112.689C101.152 112.79 101.537 112.788 101.899 112.682C102.176 112.622 102.434 112.498 102.652 112.319C102.871 112.141 103.042 111.913 103.153 111.656C103.394 111.221 103.49 110.722 103.43 110.23C103.37 109.738 103.155 109.277 102.817 108.911L102.205 108.187C101.025 109.042 99.7877 109.818 98.502 110.51C98.982 111.016 99.4316 111.55 99.8484 112.109Z" fill="#33001A"/>
<path d="M77.3572 110.391C76.99 111.386 78.3976 111.869 78.9178 111.084C79.4448 110.302 80.0386 109.565 80.6927 108.882L78.8566 107.524C78.2659 108.431 77.7639 109.391 77.3572 110.391Z" fill="#33001A"/>
<path d="M84.4259 126.35C84.3301 126.528 84.3 126.734 84.3405 126.932C84.3811 127.13 84.4899 127.308 84.6484 127.436C84.807 127.564 85.0055 127.634 85.2103 127.634C85.4152 127.634 85.6137 127.564 85.7723 127.436C88.2509 125.203 90.0257 127.436 92.5655 127.164C92.702 127.151 92.8331 127.105 92.947 127.03C93.0608 126.954 93.1538 126.852 93.2176 126.732C93.2814 126.612 93.3139 126.479 93.3122 126.344C93.3106 126.208 93.2748 126.076 93.2081 125.958C91.5557 122.277 86.0783 123.242 84.4259 126.35ZM86.4149 125.294C86.368 125.277 86.3276 125.246 86.2991 125.205C86.2706 125.165 86.2553 125.117 86.2553 125.068C86.2553 125.018 86.2706 124.97 86.2991 124.93C86.3276 124.889 86.368 124.858 86.4149 124.841C86.6597 124.841 86.6597 125.294 86.4149 125.294Z" fill="#33001A"/>
<path d="M86.4149 125.293C86.6597 125.293 86.6597 124.841 86.4149 124.841C86.368 124.858 86.3276 124.889 86.2991 124.929C86.2706 124.97 86.2553 125.018 86.2553 125.067C86.2553 125.116 86.2706 125.164 86.2991 125.205C86.3276 125.245 86.368 125.276 86.4149 125.293Z" fill="#33001A"/>
<path d="M59.1501 66.3723C60.7145 65.2655 62.6125 64.7127 64.5357 64.8035C63.871 63.7099 63.5218 62.4581 63.5259 61.1831C63.4891 60.3129 63.6271 59.444 63.9321 58.6265C64.2371 57.809 64.703 57.0591 65.3031 56.4198C65.9032 55.7805 66.6255 55.2645 67.4286 54.9015C68.2317 54.5384 69.0997 54.3356 69.9826 54.3045C71.1951 54.3245 72.3768 54.684 73.39 55.341C74.4032 55.9981 75.206 56.9256 75.7048 58.0153C75.1895 55.7098 73.8811 53.6509 72.0014 52.1882C70.1218 50.7255 67.7868 49.9489 65.3926 49.9903C62.6788 49.9254 60.0497 50.9245 58.082 52.7683C56.1144 54.6121 54.9688 57.1501 54.8967 59.8255C54.8886 61.1809 55.1737 62.5224 55.733 63.7606C56.2923 64.9988 57.113 66.1051 58.1403 67.0058L59.1195 66.6438C59.0962 66.6008 59.0866 66.5518 59.0921 66.5034C59.0976 66.4549 59.1178 66.4092 59.1501 66.3723Z" fill="white"/>
<path d="M29.315 18.7652C26.1184 21.1808 23.2582 24.0008 20.8081 27.1523C10.7407 39.6123 8.13965 55.4814 18.3601 54.3048C19.7677 54.4557 18.7273 46.9133 22.4299 39.4011C26.4549 31.095 32.5768 23.9477 40.2086 18.6445L29.315 18.7652Z" fill="white"/>
<path d="M113.221 91.8666C107.881 94.9025 102.117 97.1489 96.1151 98.534C94.5105 98.8374 92.8831 99.0089 91.2497 99.0469C84.8237 99.0469 78.6118 97.1764 69.8296 93.3147L69.4318 93.1337C68.6935 92.6568 67.9272 92.2236 67.1368 91.8364C67.6825 93.5771 68.4758 95.2328 69.493 96.754C70.0438 97.6591 70.6864 98.5642 71.3596 99.4994C72.0328 100.405 72.7672 101.31 73.5628 102.215C74.3584 103.12 75.154 103.995 76.0414 104.839C76.9288 105.684 77.8162 106.499 78.7342 107.223L79.1626 106.68C79.3156 106.469 79.4686 106.227 79.6522 106.016C79.8358 105.805 80.1725 105.443 80.4173 105.171C80.6621 104.9 80.7539 104.779 80.9375 104.628L81.9473 103.814L82.3451 103.512C82.831 103.19 83.3427 102.907 83.8751 102.667H84.2423C84.6398 102.49 85.0487 102.339 85.4663 102.215L86.0783 102.064L87.1493 101.822H87.8225H88.8935H89.5973H90.6683H91.3721L92.4431 102.064H93.1163C93.5141 102.064 93.8813 102.305 94.2791 102.426L94.8605 102.637C95.3807 102.848 95.8703 103.059 96.3905 103.331L98.0123 104.296L98.5019 104.658L99.5424 105.443L100.124 105.956C100.424 106.211 100.71 106.483 100.981 106.77L101.531 107.343L101.99 107.826C103.061 107.042 104.132 106.167 105.05 105.262C105.147 105.197 105.23 105.115 105.295 105.02C106.276 104.159 107.206 103.242 108.08 102.275L108.355 102.003C109.253 101.038 110.079 100.032 110.834 98.9866C110.843 98.9064 110.843 98.8254 110.834 98.7452C111.621 97.7777 112.356 96.7707 113.037 95.7283C114.374 94.2677 115.469 92.6081 116.281 90.8106C116.281 90.5994 116.862 90.6598 116.984 90.6296C117.107 90.5995 116.984 90.6296 116.984 90.6296C116.984 90.6296 115.21 90.7805 113.221 91.8666Z" fill="#33001A"/>
<path d="M111.415 99.1367C111.425 99.2169 111.425 99.2979 111.415 99.3781C111.425 99.2979 111.425 99.2169 111.415 99.1367Z" fill="#33001A"/>
<path d="M105.724 105.291C105.658 105.386 105.575 105.468 105.479 105.532C105.575 105.468 105.658 105.386 105.724 105.291Z" fill="#33001A"/>
<path d="M108.784 102.274L108.508 102.546L108.784 102.274Z" fill="#33001A"/>
<path d="M116.801 90.5082C116.372 90.3574 115.21 90.7194 113.098 91.8055C107.758 94.8414 101.995 97.0878 95.9927 98.4729C102.034 97.1181 107.839 94.8917 113.221 91.8658C115.332 90.7797 116.495 90.4177 116.923 90.5686C117.352 90.7194 116.923 90.5686 116.923 90.5686C116.923 90.5686 116.893 90.5082 116.801 90.5082Z" fill="#33001A"/>
<path d="M66.9838 91.835C67.7742 92.2222 68.5405 92.6554 69.2788 93.1322C68.5405 92.6554 67.7742 92.2222 66.9838 91.835Z" fill="#33001A"/>
<path d="M101.225 107.132L101.776 107.705L101.225 107.132Z" fill="#33001A"/>
<path d="M94.3709 102.728L94.9523 102.939L94.3709 102.728Z" fill="#33001A"/>
<path d="M99.7871 105.805L100.369 106.318L99.7871 105.805Z" fill="#33001A"/>
<path d="M79.2544 106.951C79.4074 106.74 79.5604 106.498 79.744 106.287C79.9276 106.076 79.5604 106.74 79.2544 106.951Z" fill="#33001A"/>
<path d="M82.039 104.084L82.4368 103.782L82.039 104.084Z" fill="#33001A"/>
<path d="M85.6805 102.335L86.2925 102.185L85.6805 102.335Z" fill="#33001A"/>
<path d="M80.509 105.593C80.6926 105.412 80.8456 105.201 81.0292 105.05C81.2128 104.899 80.6926 105.261 80.509 105.593Z" fill="#33001A"/>
<path d="M98.2571 104.657L98.7467 105.019L98.2571 104.657Z" fill="#33001A"/>
<path d="M170.81 55.5713C171.055 52.7958 171.942 43.5036 167.291 44.8914C163.833 45.1025 165.7 49.3564 165.149 54.7568C164.598 60.1571 150.92 81.9093 151.012 82.0601C155.235 83.4479 169.77 62.2086 170.81 55.5713Z" fill="#C10016"/>
<path d="M72.859 66.825L73.1344 67.0362C74.6587 66.1407 75.7757 64.7018 76.2541 63.0172C76.7325 61.3326 76.5359 59.531 75.7048 57.9854C75.8399 58.5797 75.9117 59.1864 75.919 59.7955C75.9216 61.1109 75.6515 62.413 75.1253 63.6218C74.5991 64.8306 73.8279 65.9206 72.859 66.825Z" fill="#33001A"/>
<path d="M69.9826 54.3047C68.2158 54.3677 66.5458 55.1164 65.3365 56.3879C64.1271 57.6593 63.4764 59.3504 63.526 61.0928C63.5218 62.3677 63.871 63.6196 64.5358 64.7131C67.4576 64.5423 70.3624 65.2583 72.859 66.7647C73.8167 65.8708 74.5814 64.7954 75.1072 63.6031C75.6331 62.4107 75.9092 61.1259 75.919 59.8257C75.9117 59.2166 75.8399 58.6099 75.7048 58.0155C75.206 56.9257 74.4032 55.9983 73.39 55.3412C72.3769 54.6842 71.1951 54.3247 69.9826 54.3047Z" fill="#33001A"/>
<path d="M67.3204 67.5806C69.8296 68.184 71.6044 70.8691 74.083 70.8992C74.1996 70.8954 74.3142 70.8688 74.4204 70.8212C74.5265 70.7736 74.6221 70.7059 74.7017 70.6218C74.7813 70.5377 74.8433 70.439 74.8841 70.3313C74.925 70.2237 74.9439 70.1091 74.9398 69.9942C74.8642 69.3963 74.6649 68.8201 74.3544 68.3011C74.0438 67.7822 73.6286 67.3316 73.1344 66.9772C72.2106 67.5301 71.1548 67.832 70.0744 67.8521C69.132 67.851 68.2026 67.6353 67.3587 67.2219C66.5148 66.8085 65.7791 66.2085 65.2089 65.4688C63.1194 65.4947 61.0496 65.8722 59.0889 66.585C61.8123 67.4901 64.6581 66.9169 67.3204 67.5806Z" fill="#33001A"/>
<path d="M64.5358 64.7733C62.6125 64.6825 60.7145 65.2354 59.1501 66.3421C59.1154 66.3849 59.0964 66.4381 59.0964 66.493C59.0964 66.5478 59.1154 66.601 59.1501 66.6438C61.1108 65.9311 63.1806 65.5535 65.2702 65.5275C65.0069 65.2943 64.7614 65.0422 64.5358 64.7733Z" fill="#33001A"/>
<path d="M72.7366 66.9463C70.4654 65.9832 68.0179 65.4903 65.5456 65.4981H65.1172C65.6873 66.2379 66.423 66.8379 67.2669 67.2513C68.1109 67.6647 69.0402 67.8804 69.9826 67.8815C71.063 67.8614 72.1188 67.5595 73.0426 67.0066L72.7672 66.7954C72.7406 66.8411 72.7298 66.894 72.7366 66.9463Z" fill="#33001A"/>
<path d="M107.101 57.1106C107.669 56.266 108.436 55.5695 109.336 55.0809C110.237 54.5923 111.244 54.326 112.272 54.3048C114.044 54.36 115.722 55.1054 116.938 56.3777C118.154 57.65 118.809 59.3455 118.759 61.093C118.751 62.1406 118.499 63.1725 118.025 64.1099C118.868 64.1421 119.708 64.243 120.534 64.4116C120.84 64.4116 120.748 64.9245 120.534 64.9245C119.82 65.0341 119.122 65.2265 118.453 65.4977C120.562 65.6082 122.635 66.0883 124.573 66.9157C125.59 66.0192 126.404 64.9222 126.963 63.6956C127.521 62.469 127.813 61.1403 127.817 59.7957C127.745 57.1202 126.599 54.5822 124.632 52.7384C122.664 50.8946 120.035 49.8956 117.321 49.9604C115.061 49.8953 112.841 50.558 110.996 51.8481C109.152 53.1383 107.785 54.9856 107.101 57.1106Z" fill="white"/>
<path d="M112.272 67.9118C111.405 67.9185 110.547 67.733 109.763 67.3688C108.756 68.2744 108.142 69.5279 108.049 70.8684C108.041 71.0176 108.068 71.1667 108.127 71.3039C108.187 71.4411 108.279 71.5628 108.394 71.6593C108.51 71.7558 108.647 71.8245 108.794 71.86C108.941 71.8956 109.095 71.8969 109.243 71.864C111.017 71.4115 111.935 69.7521 113.374 68.5755C114.883 67.3267 116.575 66.3096 118.392 65.5586H117.168C116.582 66.2868 115.838 66.8762 114.991 67.2835C114.144 67.6907 113.215 67.9055 112.272 67.9118Z" fill="#33001A"/>
<path d="M120.534 64.5019C119.708 64.3333 118.868 64.2324 118.025 64.2002C117.787 64.6707 117.499 65.1156 117.168 65.5276H118.392C119.06 65.2565 119.759 65.0641 120.473 64.9544C120.748 65.0148 120.84 64.5622 120.534 64.5019Z" fill="#33001A"/>
<path d="M109.824 66.9466C108.447 65.7473 107.456 64.1774 106.972 62.4301C106.488 60.6827 106.533 58.834 107.101 57.1113C106.268 58.2999 105.82 59.7094 105.815 61.154C105.801 62.4539 106.165 63.7305 106.865 64.8322C107.564 65.9339 108.57 66.8144 109.763 67.3689C110.003 67.1222 110.258 66.8905 110.528 66.675C110.286 66.7472 110.051 66.838 109.824 66.9466Z" fill="#33001A"/>
<path d="M109.824 66.9457C110.051 66.8371 110.286 66.7463 110.528 66.6742C111.214 66.1266 111.964 65.6608 112.762 65.2864C114.396 64.4939 116.206 64.1204 118.025 64.2003C118.499 63.2629 118.751 62.231 118.759 61.1833C118.796 60.3106 118.657 59.4393 118.35 58.6199C118.043 57.8005 117.575 57.0492 116.971 56.4095C116.368 55.7698 115.642 55.2544 114.835 54.8932C114.029 54.5319 113.158 54.3319 112.272 54.3047C111.25 54.3192 110.246 54.5762 109.346 55.0541C108.446 55.532 107.676 56.2166 107.101 57.0501C106.533 58.7728 106.488 60.6215 106.972 62.3688C107.456 64.1162 108.447 65.6861 109.824 66.8853V66.9457Z" fill="#33001A"/>
<path d="M117.168 65.5273C114.951 65.5302 112.753 65.9289 110.681 66.704C110.411 66.9194 110.156 67.1511 109.916 67.3979C110.7 67.762 111.558 67.9476 112.425 67.9409C113.347 67.9052 114.249 67.6705 115.068 67.2535C115.888 66.8365 116.605 66.2472 117.168 65.5273Z" fill="#33001A"/>
<path d="M112.762 65.2869C111.964 65.6613 111.214 66.1271 110.528 66.6747C112.6 65.8996 114.798 65.5009 117.015 65.498C117.346 65.086 117.634 64.6411 117.872 64.1706C116.101 64.1252 114.347 64.5085 112.762 65.2869Z" fill="#33001A"/>
</g>
<defs>
<clipPath id="clip0_264_2636">
<rect width="181" height="164.031" fill="white"/>
</clipPath>
</defs>
</svg>
