<svg width="279" height="198" viewBox="0 0 279 198" fill="none" xmlns="http://www.w3.org/2000/svg">
<path fill-rule="evenodd" clip-rule="evenodd" d="M208.086 171.104C193.119 185.985 173.458 195.217 152.449 197.229C131.441 199.241 110.385 193.907 92.8674 182.136C75.3495 170.366 62.4529 152.886 56.3738 132.674C50.2947 112.462 51.409 90.7668 59.5269 71.284C67.6449 51.8013 82.2645 35.7351 100.896 25.8217C119.528 15.9082 141.019 12.7604 161.711 16.9143C182.402 21.0682 201.015 32.2669 214.378 48.6034C227.741 64.9399 235.029 85.404 235 106.511C234.984 118.519 232.598 130.406 227.979 141.49C223.361 152.574 216.601 162.638 208.086 171.104Z" fill="white"/>
<path fill-rule="evenodd" clip-rule="evenodd" d="M143.5 187.41C159.496 187.398 175.129 182.642 188.423 173.745C201.717 164.848 212.075 152.209 218.188 137.426C224.301 122.642 225.893 106.378 222.765 90.689C219.637 75.0002 211.928 60.5912 200.612 49.2835C189.297 37.9758 174.884 30.2771 159.194 27.1607C143.505 24.0443 127.244 25.6501 112.467 31.775C97.6896 37.9 85.06 48.2692 76.1744 61.5717C67.2889 74.8742 62.5463 90.5128 62.5463 106.511C62.591 127.964 71.1363 148.525 86.3102 163.688C101.484 178.852 122.049 187.382 143.5 187.41V187.41Z" fill="#FECC00"/>
<path fill-rule="evenodd" clip-rule="evenodd" d="M143.5 185.005C125.301 185.04 107.654 178.761 93.5667 167.239C79.4794 155.716 69.8245 139.663 66.2481 121.818C62.6717 103.972 65.3953 85.4378 73.9545 69.3757C82.5137 53.3136 96.3785 40.7179 113.185 33.7362C129.992 26.7546 148.699 25.8192 166.118 31.0896C183.537 36.3599 198.589 47.5097 208.707 62.638C218.826 77.7662 223.384 95.936 221.605 114.05C219.826 132.163 211.821 149.099 198.953 161.969C191.682 169.272 183.04 175.067 173.524 179.02C164.008 182.973 153.805 185.007 143.5 185.005ZM226.795 106.51C226.83 87.2024 220.168 68.4799 207.945 53.5347C195.722 38.5896 178.694 28.347 159.765 24.5533C140.835 20.7595 121.176 23.6494 104.139 32.7303C87.1017 41.8111 73.7411 56.5208 66.3349 74.3515C58.9286 92.1822 57.9353 112.03 63.5243 130.511C69.1133 148.992 80.9385 164.963 96.984 175.7C113.029 186.437 132.302 191.275 151.515 189.391C170.729 187.506 188.694 179.015 202.349 165.366C210.097 157.648 216.246 148.477 220.441 138.377C224.636 128.276 226.796 117.447 226.795 106.51V106.51Z" fill="black"/>
<path fill-rule="evenodd" clip-rule="evenodd" d="M171.659 35.9684C177.497 38.9026 182.987 42.4831 188.027 46.6425C192.646 50.4818 195.936 55.8189 200.682 59.2996C200.85 59.3896 201.04 59.4293 201.23 59.414C201.42 59.3987 201.601 59.329 201.753 59.2133C201.904 59.0976 202.019 58.9407 202.083 58.7615C202.148 58.5822 202.159 58.3882 202.117 58.2026C199.881 52.6124 194.312 48.4989 189.714 44.8705C184.39 40.6491 178.271 37.5427 171.722 35.7363C171.722 35.7363 171.595 35.9262 171.659 35.9684Z" fill="black"/>
<path fill-rule="evenodd" clip-rule="evenodd" d="M202.538 63.139C202.876 65.2486 203.994 68.6027 206.209 69.2144C206.36 69.253 206.52 69.2303 206.654 69.1512C206.788 69.0722 206.886 68.9433 206.926 68.7925C207.474 66.683 205.027 64.3204 204.078 62.464C203.614 61.578 202.391 62.2531 202.538 63.139Z" fill="black"/>
<path fill-rule="evenodd" clip-rule="evenodd" d="M68.1992 102.756C66.2165 118.535 73.0505 141.887 85.6217 152.287C85.723 152.39 85.8586 152.453 86.0028 152.462C86.147 152.472 86.2897 152.429 86.4041 152.341C86.5185 152.252 86.5964 152.125 86.6233 151.983C86.6501 151.841 86.624 151.694 86.5498 151.57C77.3112 135.77 70.9834 121.109 68.8741 102.756C68.904 102.698 68.9184 102.633 68.9161 102.568C68.9138 102.503 68.8947 102.44 68.8608 102.384C68.8269 102.329 68.7793 102.283 68.7226 102.251C68.6658 102.219 68.6018 102.202 68.5367 102.202C68.4715 102.202 68.4075 102.219 68.3508 102.251C68.294 102.283 68.2464 102.329 68.2125 102.384C68.1786 102.44 68.1596 102.503 68.1572 102.568C68.1549 102.633 68.1693 102.698 68.1992 102.756V102.756Z" fill="black"/>
<path fill-rule="evenodd" clip-rule="evenodd" d="M90.7683 157.139C88.0263 159.248 97.518 168.277 100.26 167.517C103.002 166.758 98.1508 163.298 97.518 162.855C96.1681 161.779 94.8814 160.746 93.5947 159.501C92.751 158.784 92.055 157.603 91.0847 157.096C91.0352 157.066 90.9767 157.054 90.919 157.061C90.8614 157.069 90.8082 157.096 90.7683 157.139V157.139Z" fill="black"/>
<path fill-rule="evenodd" clip-rule="evenodd" d="M137.32 119.864C139.263 118.99 141.425 118.725 143.521 119.104C145.019 119.252 146.495 119.695 147.487 118.387C147.554 118.279 147.59 118.155 147.59 118.028C147.59 117.901 147.554 117.777 147.487 117.67C146.347 116.045 143.268 116.531 141.559 116.615C140.592 116.602 139.636 116.823 138.772 117.261C137.909 117.698 137.165 118.338 136.603 119.125C136.371 119.589 136.877 120.096 137.32 119.864Z" fill="black"/>
<path fill-rule="evenodd" clip-rule="evenodd" d="M86.6974 58.0975C91.2686 52.5568 96.6858 47.7726 102.749 43.9216C108.95 40.3143 133.46 29.6402 139.387 34.471C139.155 34.682 112.641 43.7318 105.765 48.3727C100.376 52.2102 95.5243 56.7507 91.3378 61.8735C87.6255 66.6832 83.7656 75.9862 80.5806 73.9399C74.8645 72.3789 85.1577 60.1437 86.6974 58.0975Z" fill="white"/>
<path fill-rule="evenodd" clip-rule="evenodd" d="M80.4751 81.2595C79.2148 83.686 77.6482 85.9405 75.8136 87.9678C73.4934 87.0607 74.9488 81.3017 75.5816 79.5297C76.2144 77.7577 76.805 78.2007 78.3448 78.3906C80.3486 78.5383 81.2766 78.5383 80.4751 81.2595Z" fill="white"/>
<path fill-rule="evenodd" clip-rule="evenodd" d="M210.49 135.094C207.165 142.503 202.527 149.25 196.801 155.008C190.769 160.746 166.449 178.044 158.539 175.006C158.75 174.732 185.453 158.847 192.709 151.19C197.678 145.653 201.756 139.375 204.795 132.584C207.348 126.256 208.803 114.231 212.515 115.37C218.948 115.012 211.418 132.711 210.49 135.094Z" fill="#E7B900"/>
<path fill-rule="evenodd" clip-rule="evenodd" d="M93.9533 80.5213C92.4467 81.1318 90.8328 81.4331 89.2075 81.4073C87.5821 81.4331 85.9682 81.1318 84.4616 80.5213C83.7455 80.3061 83.11 79.8819 82.6365 79.3031C82.163 78.7243 81.8731 78.0173 81.8039 77.2727C81.8811 76.5356 82.1746 75.8378 82.6475 75.2672C83.1205 74.6966 83.7517 74.2787 84.4616 74.0662C85.9682 73.4558 87.5821 73.1545 89.2075 73.1802C90.8328 73.1545 92.4467 73.4558 93.9533 74.0662C94.6694 74.2815 95.3049 74.7057 95.7784 75.2845C96.2519 75.8633 96.5418 76.5703 96.611 77.3149C96.5339 78.052 96.2403 78.7498 95.7674 79.3204C95.2945 79.891 94.6633 80.3088 93.9533 80.5213Z" fill="#D3799F"/>
<path fill-rule="evenodd" clip-rule="evenodd" d="M202.897 80.5213C199.843 81.7019 196.459 81.7019 193.405 80.5213C192.689 80.306 192.054 79.8818 191.58 79.303C191.107 78.7242 190.817 78.0172 190.748 77.2726C190.818 76.5458 191.099 75.8554 191.556 75.2859C192.013 74.7163 192.627 74.2925 193.321 74.0662C196.375 72.8855 199.759 72.8855 202.813 74.0662C203.529 74.2814 204.164 74.7056 204.638 75.2844C205.111 75.8632 205.401 76.5702 205.47 77.3148C205.4 78.0416 205.118 78.7321 204.661 79.3016C204.204 79.8711 203.591 80.295 202.897 80.5213V80.5213Z" fill="#D3799F"/>
<g clip-path="url(#clip0_593_13740)">
<path fill-rule="evenodd" clip-rule="evenodd" d="M119.412 107.361C119.597 106.924 119.938 106.582 120.362 106.411C120.785 106.24 121.256 106.253 121.67 106.448C122.084 106.643 122.407 107.004 122.57 107.451C122.732 107.898 122.719 108.395 122.534 108.832C118.187 118.978 120.589 127.601 125.993 133.359C129.102 136.571 132.914 138.923 137.09 140.207C141.242 141.573 145.652 141.817 149.917 140.917C157.243 139.217 163.488 133.511 165.049 122.681C165.066 122.433 165.131 122.191 165.24 121.972C165.349 121.752 165.5 121.558 165.684 121.403C165.867 121.247 166.079 121.134 166.306 121.069C166.533 121.004 166.771 120.99 167.003 121.027C167.236 121.064 167.459 121.151 167.658 121.283C167.857 121.415 168.028 121.59 168.16 121.795C168.292 122 168.383 122.232 168.426 122.476C168.47 122.72 168.465 122.971 168.412 123.213C166.634 135.895 159.284 142.439 150.637 144.442C145.854 145.486 140.9 145.25 136.225 143.757C131.463 142.272 127.127 139.552 123.615 135.844C117.274 129.174 114.44 119.18 119.412 107.361Z" fill="black"/>
<path fill-rule="evenodd" clip-rule="evenodd" d="M131.566 56.0257C156.45 63.6347 149.797 70.8632 146.866 81.0085C143.936 91.1538 132.454 96.4039 120.973 92.7263C109.492 89.0486 102.742 77.8888 105.673 67.7435C108.603 57.5982 106.705 48.3407 131.566 56.0257Z" fill="black"/>
<path fill-rule="evenodd" clip-rule="evenodd" d="M184.673 73.1204C209.533 80.7294 202.88 87.9833 199.95 98.1032C197.019 108.223 185.538 113.499 174.056 109.821C162.575 106.143 155.85 94.9835 158.756 84.8382C161.662 74.693 159.789 65.4354 184.673 73.1204Z" fill="black"/>
<path fill-rule="evenodd" clip-rule="evenodd" d="M146.77 74.7946C146.775 75.0545 146.726 75.3125 146.628 75.5508C146.529 75.789 146.383 76.0019 146.199 76.1748C146.015 76.3476 145.797 76.4763 145.562 76.5521C145.326 76.6279 145.078 76.6489 144.834 76.6137C144.59 76.5784 144.356 76.4878 144.149 76.3481C143.941 76.2084 143.764 76.0228 143.631 75.8041C143.498 75.5855 143.411 75.339 143.376 75.0815C143.342 74.824 143.361 74.5617 143.431 74.3127C143.63 72.4512 144.432 70.7195 145.701 69.4113C146.971 68.103 148.63 67.2987 150.397 67.1349C152.736 66.7885 155.119 67.0141 157.363 67.7943C159.614 68.5004 161.678 69.751 163.392 71.4466C164.709 72.638 165.595 74.2753 165.897 76.0791C166.2 77.883 165.9 79.7417 165.049 81.3383C164.95 81.5588 164.81 81.7559 164.637 81.9174C164.463 82.0789 164.261 82.2016 164.041 82.278C163.822 82.3543 163.59 82.3828 163.36 82.3616C163.129 82.3405 162.906 82.2701 162.702 82.1548C162.498 82.0395 162.319 81.8817 162.175 81.691C162.031 81.5003 161.925 81.2806 161.863 81.0453C161.802 80.81 161.787 80.564 161.818 80.3222C161.85 80.0805 161.927 79.848 162.047 79.6389C162.51 78.7193 162.658 77.6588 162.465 76.6372C162.272 75.6156 161.751 74.6958 160.99 74.0337C159.666 72.7295 158.069 71.7736 156.33 71.2437C154.6 70.6283 152.76 70.4375 150.949 70.6857C149.91 70.7526 148.924 71.199 148.162 71.9485C147.399 72.6981 146.907 73.7042 146.77 74.7946V74.7946Z" fill="black"/>
<path fill-rule="evenodd" clip-rule="evenodd" d="M167.907 57.4968C171.799 58.004 175.762 57.9533 179.605 58.7142C184 59.6019 186.066 62.8231 189.645 64.9536C189.826 65.0668 190.033 65.122 190.243 65.1124C190.453 65.1029 190.656 65.0291 190.826 64.9C190.997 64.7708 191.128 64.592 191.204 64.3853C191.28 64.1786 191.298 63.9531 191.254 63.7361C189.597 53.9967 174.441 54.7322 167.859 56.8627C167.795 56.8873 167.74 56.9335 167.703 56.9943C167.666 57.0551 167.649 57.127 167.654 57.1991C167.66 57.2712 167.687 57.3393 167.733 57.3931C167.779 57.4469 167.84 57.4833 167.907 57.4968V57.4968Z" fill="black"/>
<path fill-rule="evenodd" clip-rule="evenodd" d="M141.726 97.0128C144.128 93.9692 147.659 90.6212 151.646 93.0054C154.6 94.7554 153.159 99.0165 154.769 101.451C154.852 101.598 154.97 101.72 155.111 101.805C155.252 101.89 155.411 101.934 155.573 101.934C155.736 101.934 155.895 101.89 156.036 101.805C156.177 101.72 156.295 101.598 156.378 101.451C156.861 100.27 157.077 98.9857 157.011 97.7006C156.944 96.4155 156.596 95.1642 155.994 94.0453C155.557 92.9252 154.874 91.9313 154.001 91.146C153.128 90.3608 152.09 89.807 150.974 89.5306C147.707 88.6936 138.267 91.864 141.053 96.9113C141.082 96.9753 141.126 97.0308 141.18 97.0728C141.234 97.1148 141.297 97.142 141.364 97.152C141.431 97.162 141.498 97.1546 141.562 97.1303C141.625 97.106 141.681 97.0656 141.726 97.0128V97.0128Z" fill="black"/>
<path fill-rule="evenodd" clip-rule="evenodd" d="M146.17 49.6089C141.366 42 128.419 39.4636 121.742 45.424C121.625 45.5435 121.544 45.6961 121.508 45.8632C121.472 46.0303 121.483 46.2049 121.539 46.3658C121.595 46.5267 121.693 46.6671 121.823 46.77C121.953 46.8729 122.108 46.934 122.27 46.9458C125.88 46.4643 129.513 46.2102 133.151 46.1849C137.643 46.4385 141.51 48.7212 145.689 50.2684C145.77 50.2885 145.855 50.2835 145.933 50.2541C146.012 50.2246 146.08 50.1719 146.131 50.1023C146.182 50.0327 146.212 49.9492 146.219 49.8616C146.226 49.7741 146.209 49.6864 146.17 49.6089V49.6089Z" fill="black"/>
<path fill-rule="evenodd" clip-rule="evenodd" d="M142.639 66.0191L113.983 83.19C112.006 81.0859 110.604 78.457 109.924 75.5811L134.136 61.124C137.278 62.0726 140.182 63.7443 142.639 66.0191V66.0191Z" fill="white"/>
<path fill-rule="evenodd" clip-rule="evenodd" d="M197.812 84.5089L168.196 102.263C165.927 100.311 164.18 97.7666 163.127 94.8825L189.981 78.7769C194.401 80.6537 196.731 82.5813 197.812 84.5089Z" fill="white"/>
</g>
<path d="M255.422 76.1562C258.483 76.8407 261.686 76.4465 264.491 75.0401C270.769 71.4975 269.817 63.3287 272.867 43.4323C275.772 24.377 278.855 17.5508 274.175 12.2451C271.666 9.71269 268.332 8.1684 264.782 7.89376C252.92 6.47028 242.188 5.1115 232.908 4.02771C215.931 2.05425 213.768 1.92484 210.815 3.51008C201.583 8.49227 200.873 23.9888 199.453 54.9981C199.202 57.9976 199.831 61.0053 201.261 63.6522C202.442 65.7549 204.157 67.5073 206.231 68.7315C214.752 73.374 238.96 75.3151 238.96 75.3151C238.261 77.0233 237.379 78.6504 236.33 80.1678C234.637 82.6277 232.535 84.778 230.116 86.525C236.522 86.7297 242.856 85.1147 248.385 81.8663C250.984 80.2996 253.352 78.3777 255.422 76.1562Z" fill="#C73E20" stroke="black" stroke-width="3" stroke-linejoin="round"/>
<path d="M252.032 33.015C250.702 31.7597 248.938 31.0698 247.11 31.09C245.65 31.0068 244.204 31.4231 243.011 32.2709C241.704 33.3913 240.662 34.7892 239.961 36.3634C239.779 36.6987 239.505 36.974 239.17 37.156C238.729 37.3846 238.215 37.4296 237.741 37.2812C237.266 37.1329 236.87 36.8031 236.636 36.3634C235.92 34.8216 234.879 33.4532 233.586 32.3518C232.393 31.504 230.947 31.0877 229.487 31.1709C227.66 31.1507 225.895 31.8406 224.565 33.0959C223.937 33.6778 223.435 34.3831 223.09 35.1679C222.746 35.9527 222.567 36.8002 222.563 37.6575C222.563 38.0619 222.563 38.4501 222.563 38.8383C222.563 38.9839 222.563 39.1295 222.563 39.2751C222.843 42.0743 223.937 44.7294 225.71 46.9101C228.592 50.1247 232.325 52.4527 236.475 53.6231C242.93 50.8732 247.481 48.4953 250.273 45.9072C252.262 44.1625 253.552 41.7545 253.905 39.1295V39.1295C253.912 38.984 253.912 38.8382 253.905 38.6927C253.905 38.3045 253.905 37.9163 253.905 37.5119C253.909 36.6748 253.746 35.8454 253.424 35.0728C253.103 34.3003 252.629 33.6005 252.032 33.015V33.015Z" fill="#FECC00" stroke="black" stroke-width="3" stroke-linejoin="round"/>
<path d="M232.876 8.92923C231.52 7.76456 222.128 7.42487 220.175 7.31163C217.857 7.0416 215.513 7.51143 213.477 8.65424C211.701 9.75266 210.261 11.3196 209.314 13.1835C208.635 14.499 208.094 15.8813 207.7 17.3084C207.409 18.4569 204.94 26.1566 207.426 26.0595C209.265 26.6904 209.879 19.2495 210.201 17.9716C210.534 16.7318 210.977 15.5246 211.525 14.3643C212.25 12.8575 213.364 11.5728 214.752 10.6439C216.357 9.6502 218.228 9.17578 220.11 9.2851L232.876 8.92923Z" fill="white"/>
<path d="M261.554 65.8037C260.989 65.8037 260.747 65.092 260.683 64.1861C260.683 64.1861 260.683 64.3155 260.683 64.3317C260.41 65.3702 259.974 66.3585 259.392 67.2596C259.161 67.5985 258.884 67.9034 258.569 68.1654C258.288 68.3785 257.971 68.5376 257.633 68.6345C248.837 70.7374 252.565 69.6374 246.755 76.4798C246.449 77.1269 243.802 78.5342 243.85 78.8253C244.157 79.5371 247.255 77.6445 247.659 77.3372C254.001 70.8668 249.886 72.7432 258.181 70.9962C258.819 70.8304 259.417 70.539 259.94 70.1389C260.487 69.7503 260.967 69.2749 261.361 68.7316C262.182 67.623 262.795 66.373 263.168 65.0434V64.8493C263.641 63.1433 263.933 61.392 264.04 59.6245C263.604 62.7141 262.829 66.661 261.554 65.8037Z" fill="#B92006"/>
<path d="M235.91 68.4887C234.893 67.8417 212.299 63.5065 208.281 62.4875C205.934 61.6304 203.528 60.9439 201.083 60.4331C201.17 61.4684 201.359 62.4926 201.648 63.4904C203.81 64.2021 206.489 64.7521 207.2 64.9785C211.654 66.0785 232.166 69.5563 235.91 68.4887Z" fill="black"/>
<path d="M265.008 27.499C264.75 28.049 264.185 33.6297 263.588 39.8089V40.2457C262.974 46.8293 262.329 53.8011 261.974 55.9363C261.296 58.6514 260.875 61.4243 260.715 64.2184C260.715 65.1404 261.005 65.836 261.57 65.836C262.861 66.6933 263.652 62.7464 264.088 59.673C264.298 58.2495 264.443 57.0201 264.524 56.4378C264.846 53.9467 265.347 46.8454 265.557 40.1648C265.548 40.0193 265.548 39.8735 265.557 39.728C265.702 34.2282 265.621 29.1166 265.008 27.499Z" fill="#B92006"/>
<path d="M265.293 27C265.035 27.55 264.47 33.1307 263.873 39.3099V39.7466C263.259 46.3302 262.614 53.3021 262.259 55.4373C261.581 58.1524 261.16 60.9253 261 63.7194C261 64.6414 261.29 65.337 261.855 65.337C263.146 66.1943 263.937 62.2474 264.373 59.1739C264.583 57.7505 264.728 56.5211 264.809 55.9387C265.131 53.4477 265.632 46.3464 265.842 39.6658C265.834 39.5203 265.834 39.3745 265.842 39.229C265.987 33.7292 265.906 28.6176 265.293 27Z" fill="#B92006"/>
<defs>
<clipPath id="clip0_593_13740">
<rect width="98" height="103" fill="white" transform="translate(105 42)"/>
</clipPath>
</defs>
</svg>
