<svg width="97" height="95" viewBox="0 0 97 95" fill="none" xmlns="http://www.w3.org/2000/svg">
<g clip-path="url(#clip0_167_1018)">
<path fill-rule="evenodd" clip-rule="evenodd" d="M81.1029 65.0724C82.7772 68.0194 83.6726 71.3141 83.7112 74.6688C83.7085 76.4215 83.2948 78.1511 82.5005 79.73C81.7061 81.309 80.5516 82.6968 79.122 83.791C77.6999 84.8051 76.0741 85.5267 74.3469 85.9103C72.6197 86.2939 70.8283 86.3313 69.0852 86.0201C65.9412 85.4765 62.9601 84.2784 60.3526 82.5104C59.5937 85.5778 58.1522 88.4522 56.1266 90.9369C54.9864 92.3281 53.5011 93.4242 51.8059 94.1256C50.1106 94.8269 48.2592 95.1112 46.42 94.9526C44.7934 94.7453 43.2261 94.2305 41.8091 93.438C40.3921 92.6455 39.1538 91.5911 38.1661 90.3362C35.6892 87.1806 33.9649 83.5433 33.1147 79.6805C29.9977 81.5721 26.4556 82.7264 22.7808 83.0479C21.0771 83.1724 19.3659 82.9336 17.7702 82.3485C16.1745 81.7635 14.7342 80.8469 13.5529 79.6647C12.442 78.4862 11.6008 77.0981 11.0834 75.5897C10.566 74.0814 10.3838 72.486 10.5485 70.9061C10.9845 67.2225 12.3252 63.6902 14.4608 60.5983C10.4306 59.6686 6.71472 57.7695 3.66471 55.0807C2.38411 53.9101 1.39104 52.4817 0.757256 50.8986C0.123476 49.3156 -0.135183 47.6174 -2.90088e-05 45.9269C0.198089 44.3039 0.73938 42.7365 1.59083 41.3203C2.44227 39.9042 3.58603 38.669 4.95232 37.6901C8.78374 35.012 13.268 33.3192 17.977 32.7733C15.7392 28.7821 14.6617 24.2884 14.857 19.762C14.9929 18.0595 15.5046 16.4041 16.3583 14.9051C17.2121 13.4062 18.3883 12.0979 19.8094 11.0667C21.2651 10.0811 22.9241 9.40471 24.675 9.08297C26.4259 8.76123 28.2284 8.80154 29.9617 9.2012C34.1815 10.2524 38.0368 12.352 41.1375 15.2879C43.5971 10.1023 46.8657 4.94841 51.0422 2.24497C52.7113 1.0353 54.6974 0.291627 56.7806 0.0963021C58.8639 -0.0990227 60.9629 0.261619 62.8453 1.13829C65.9814 2.82477 68.3084 5.61473 69.3329 8.91663C70.4229 12.1616 70.9035 15.5659 70.7525 18.9715C73.6669 17.755 76.818 17.146 79.9969 17.1851C82.1292 17.193 84.2197 17.7525 86.0474 18.8045C87.8751 19.8564 89.3722 21.3616 90.3803 23.1611C91.2126 24.8248 91.6598 26.6412 91.6911 28.4857C91.7224 30.3303 91.3373 32.1596 90.5619 33.8484C89.2965 36.7283 87.4253 39.3276 85.0648 41.4844C87.7813 42.5239 90.3319 43.9236 92.6419 45.6424C94.1788 46.7288 95.381 48.1923 96.1219 49.8785C96.8628 51.5647 97.1148 53.4111 96.8514 55.223C96.4814 56.9081 95.6861 58.4808 94.535 59.8036C93.384 61.1264 91.9122 62.1592 90.2483 62.8116C87.3287 63.9811 84.2488 64.7425 81.1029 65.0724Z" fill="white"/>
<path fill-rule="evenodd" clip-rule="evenodd" d="M43.1348 25.9278C37.9679 18.9715 32.6854 15.4934 28.7565 14.6871C27.8381 14.4515 26.8773 14.4086 25.94 14.5614C25.0026 14.7142 24.1108 15.0591 23.3254 15.5725C22.5716 16.1424 21.9545 16.8609 21.5159 17.6792C21.0772 18.4975 20.8274 19.3965 20.7832 20.3154C20.3705 24.252 22.434 30.3387 28.0137 37.7059C18.5217 37.5795 11.935 39.445 8.64998 42.0062C7.91033 42.5182 7.28735 43.1691 6.81905 43.9193C6.35075 44.6695 6.04696 45.5033 5.92619 46.3696C5.87177 47.2393 6.02145 48.1097 6.36425 48.9167C6.70704 49.7238 7.23424 50.4471 7.90713 51.0334C10.5484 53.6104 16.161 55.7763 25.1083 56.5984C19.4131 62.448 16.7388 67.6652 16.4747 71.2065C16.344 72.0385 16.4032 72.8877 16.6483 73.6956C16.8934 74.5035 17.3185 75.2508 17.8944 75.8862C18.498 76.4656 19.2294 76.9083 20.0349 77.1819C20.8404 77.4554 21.6996 77.5529 22.5496 77.4671C26.0823 77.3248 31.3152 74.9376 37.6212 69.5623C38.0009 77.6252 40.1469 83.791 42.7717 86.8264C43.2782 87.5042 43.9196 88.0794 44.659 88.5189C45.3984 88.9584 46.2212 89.2537 47.0802 89.3876C47.963 89.4484 48.8474 89.2931 49.6502 88.9363C50.4531 88.5796 51.1479 88.033 51.6694 87.3481C53.8484 84.8186 55.6148 79.633 56.1265 71.1433C61.0788 77.0087 66.1302 79.9018 69.9435 80.471C70.8888 80.6623 71.8652 80.6642 72.8113 80.4765C73.7574 80.2887 74.6526 79.9154 75.4407 79.3801C76.1855 78.7898 76.7796 78.0441 77.1773 77.2001C77.575 76.3561 77.7658 75.4362 77.7352 74.5107C77.8343 71.0168 75.6883 65.9893 70.2737 60.124C78.4121 59.9817 84.4044 59.0647 87.6069 57.6261C88.4058 57.3523 89.1234 56.8972 89.6984 56.2997C90.2734 55.7022 90.6886 54.9802 90.9085 54.1954C90.9884 53.3588 90.8275 52.5172 90.4434 51.7619C90.0592 51.0066 89.4665 50.3665 88.7295 49.911C86.1377 47.8399 80.7232 45.5317 72.04 43.1919C79.1714 39.856 83.4139 35.4294 84.9492 31.6983C85.3981 30.7552 85.6304 29.7309 85.6304 28.6945C85.6304 27.658 85.3981 26.6337 84.9492 25.6906C84.4081 24.779 83.6185 24.0253 82.6648 23.5102C81.7111 22.995 80.6291 22.7377 79.5346 22.7658C75.8368 22.6077 70.1581 24.5207 62.7791 29.8169C65.1233 22.0544 65.1068 15.0191 63.5715 10.7505C63.0349 8.83469 61.7454 7.19184 59.9728 6.16575C59.0337 5.74008 57.9879 5.57801 56.9565 5.69833C55.9251 5.81865 54.9505 6.21643 54.1456 6.84556C50.844 9.05891 46.8161 14.9559 42.9367 25.912L43.1348 25.9278ZM58.6357 9.05891C59.6102 9.72082 60.302 10.6978 60.5836 11.8098C62.2344 16.4578 61.8052 24.9792 57.8433 34.0539C57.6023 34.4 57.5134 34.823 57.5959 35.2314C57.6783 35.6398 57.9255 36.0005 58.2839 36.2356C58.6422 36.4706 59.0828 36.5609 59.5102 36.4869C59.9376 36.413 60.3173 36.1807 60.5671 35.8404C69.4813 28.4573 75.9359 25.8487 79.6006 26.0068C80.096 25.9713 80.5924 26.0623 81.0391 26.2706C81.4857 26.4789 81.8666 26.7971 82.1428 27.1925C82.3515 27.7317 82.4416 28.3062 82.4075 28.8803C82.3735 29.4543 82.2159 30.0154 81.9447 30.5284C80.294 34.2911 75.3416 38.9865 66.3779 42.022C66.1653 42.089 65.9692 42.1967 65.8015 42.3386C65.6338 42.4805 65.498 42.6535 65.4022 42.8472C65.3065 43.0409 65.2529 43.2513 65.2447 43.4654C65.2364 43.6796 65.2738 43.8931 65.3544 44.093C65.4437 44.3449 65.5979 44.5712 65.8028 44.7508C66.0077 44.9304 66.2566 45.0576 66.5264 45.1207C77.5867 47.745 84.0082 50.2746 86.6825 52.4089C87.4253 52.9938 87.7555 53.4207 87.706 53.6737C87.6564 53.9266 87.1612 54.306 86.2533 54.7171C82.9517 56.1874 76.101 57.0411 66.4439 56.9304C66.0061 56.9304 65.5862 57.097 65.2766 57.3935C64.967 57.69 64.7931 58.0921 64.7931 58.5114C64.7896 58.7259 64.8317 58.9388 64.9168 59.1372C65.0019 59.3356 65.1284 59.5154 65.2883 59.6655C71.8915 65.9893 74.5492 71.1907 74.4667 74.4475C74.4931 74.891 74.4148 75.3345 74.2376 75.7451C74.0604 76.1557 73.7889 76.5227 73.4432 76.8189C73.0183 77.0837 72.5414 77.2623 72.0417 77.3439C71.5421 77.4255 71.0303 77.4082 70.5378 77.2932C66.7906 76.7241 61.442 73.1827 56.1265 65.5941C55.9428 65.2785 55.6517 65.0327 55.3018 64.8976C54.9519 64.7625 54.5642 64.7463 54.2033 64.8516C53.8424 64.957 53.5301 65.1775 53.3183 65.4766C53.1066 65.7757 53.0082 66.1352 53.0395 66.4953C52.8249 76.9138 51.1741 82.8108 49.0942 85.198C48.9164 85.4669 48.6735 85.6906 48.3861 85.8503C48.0987 86.0099 47.7753 86.1007 47.4434 86.115C46.6008 85.9182 45.8685 85.4205 45.3964 84.7237C42.8047 81.7041 40.7742 74.9534 40.9558 65.8471C40.9799 65.5188 40.8964 65.1915 40.7171 64.9109C40.5377 64.6302 40.2713 64.4101 39.9551 64.2814C39.639 64.1526 39.2887 64.1215 38.9532 64.1924C38.6176 64.2634 38.3136 64.4328 38.0834 64.6772C31.1667 71.2223 25.7356 74.0206 22.4175 74.1629C22.0562 74.2132 21.6879 74.1885 21.3375 74.0902C20.9872 73.992 20.663 73.8227 20.3871 73.5938C20.1496 73.3008 19.9761 72.965 19.8768 72.6065C19.7776 72.248 19.7546 71.8741 19.8093 71.5069C20.0569 68.1236 23.1108 62.7484 30.0276 56.472C30.19 56.3243 30.3192 56.1465 30.4075 55.9494C30.4959 55.7524 30.5414 55.5402 30.5414 55.3258C30.5414 55.1113 30.4959 54.8991 30.4075 54.7021C30.3192 54.505 30.19 54.3273 30.0276 54.1796C29.8781 54.0292 29.699 53.9085 29.5008 53.8244C29.3025 53.7403 29.0889 53.6945 28.8721 53.6895C18.7858 53.2784 12.7109 51.2548 10.2347 48.8517C9.91411 48.5907 9.65653 48.266 9.47982 47.9002C9.3031 47.5345 9.21146 47.1363 9.21125 46.7332C9.3948 45.8542 9.93508 45.0809 10.7135 44.5831C13.8995 42.1643 20.8988 40.4884 31.3648 41.105C31.5924 41.1225 31.8213 41.0946 32.0371 41.023C32.2529 40.9514 32.4508 40.8377 32.6184 40.6892C32.7859 40.5406 32.9195 40.3603 33.0106 40.1598C33.1017 39.9592 33.1483 39.7427 33.1476 39.524C33.1637 39.1112 33.0229 38.7068 32.7514 38.3858C26.1483 30.4809 23.6886 24.1571 24.0683 20.5367C24.0746 20.0703 24.1821 19.6102 24.3839 19.1857C24.5856 18.7611 24.8773 18.3813 25.2404 18.0704C25.6677 17.8443 26.1404 17.7077 26.627 17.6695C27.1136 17.6314 27.6031 17.6926 28.0632 17.8491C31.7279 18.5921 36.9114 22.4813 42.2599 30.4968C42.3759 30.6788 42.5291 30.8364 42.7104 30.9602C42.8916 31.0841 43.0971 31.1715 43.3146 31.2173C43.532 31.2631 43.7569 31.2663 43.9756 31.2267C44.1944 31.1871 44.4025 31.1055 44.5875 30.9869C44.9384 30.7727 45.192 30.4396 45.2974 30.0541C49.2427 17.7858 53.1221 11.5884 56.2421 9.48577C56.561 9.20993 56.9535 9.02404 57.3759 8.9487C57.7984 8.87335 58.2345 8.9115 58.6357 9.05891Z" fill="#33001A"/>
<path fill-rule="evenodd" clip-rule="evenodd" d="M86.6827 52.4089C84.0084 50.2746 77.5869 47.7451 66.5266 45.1207C66.2568 45.0576 66.0079 44.9304 65.803 44.7508C65.5981 44.5712 65.4439 44.3449 65.3546 44.093C65.274 43.8931 65.2366 43.6796 65.2449 43.4654C65.2531 43.2513 65.3067 43.041 65.4024 42.8472C65.4981 42.6535 65.634 42.4805 65.8017 42.3386C65.9694 42.1968 66.1655 42.089 66.378 42.022C75.3418 38.9865 80.3767 34.2911 81.9449 30.5284C82.2161 30.0154 82.3736 29.4543 82.4077 28.8803C82.4418 28.3062 82.3517 27.7317 82.143 27.1926C81.8668 26.7971 81.4859 26.479 81.0393 26.2706C80.5926 26.0623 80.0962 25.9713 79.6008 26.0068C75.9361 25.8487 69.4815 28.4573 60.5673 35.8404C60.3199 36.1947 59.9357 36.4404 59.4992 36.5234C59.0627 36.6064 58.6096 36.52 58.2397 36.2831C57.8697 36.0462 57.6132 35.6782 57.5265 35.2602C57.4398 34.8421 57.5301 34.4082 57.7775 34.0539C61.7393 24.9792 62.1851 16.4578 60.5178 11.8098C60.2362 10.6978 59.5444 9.72083 58.5698 9.05892C58.1642 8.91764 57.7255 8.88717 57.3028 8.97093C56.8801 9.05469 56.49 9.24936 56.1762 9.53321C53.0562 11.5885 49.1769 17.7858 45.2315 29.975C45.1261 30.3605 44.8726 30.6937 44.5217 30.9078C44.3367 31.0264 44.1285 31.108 43.9098 31.1476C43.691 31.1872 43.4662 31.184 43.2487 31.1382C43.0313 31.0925 42.8258 31.005 42.6445 30.8812C42.4633 30.7574 42.31 30.5997 42.1941 30.4177C36.8455 22.5129 31.6621 18.5921 27.9973 17.8491C27.5389 17.7184 27.0571 17.6804 26.5825 17.7375C26.1079 17.7947 25.6509 17.9457 25.2405 18.1811C24.8775 18.492 24.5858 18.8718 24.384 19.2963C24.1823 19.7209 24.0748 20.181 24.0685 20.6474C23.6888 24.331 26.0824 30.56 32.7516 38.4964C33.0231 38.8175 33.1639 39.2219 33.1478 39.6347C33.1332 39.844 33.0753 40.0483 32.9774 40.2359C32.8796 40.4235 32.7438 40.5906 32.5778 40.7274C32.4119 40.8642 32.2192 40.9681 32.011 41.0329C31.8028 41.0978 31.5831 41.1223 31.3649 41.105C20.8329 40.441 13.8336 42.1168 10.7136 44.5357C9.93526 45.0335 9.39498 45.8068 9.21143 46.6858C9.21164 47.0889 9.30327 47.487 9.47999 47.8528C9.65671 48.2186 9.91429 48.5432 10.2349 48.8043C12.7111 51.2074 18.786 53.231 28.8722 53.642C29.089 53.647 29.3027 53.6929 29.5009 53.777C29.6992 53.8611 29.8782 53.9818 30.0278 54.1321C30.1901 54.2798 30.3194 54.4576 30.4077 54.6547C30.4961 54.8517 30.5416 55.0639 30.5416 55.2783C30.5416 55.4928 30.4961 55.705 30.4077 55.902C30.3194 56.0991 30.1901 56.2768 30.0278 56.4245C23.1771 62.7484 20.1231 68.0762 19.8095 71.4595C19.7456 71.826 19.7594 72.201 19.8502 72.5623C19.9409 72.9236 20.1067 73.2636 20.3377 73.5622C20.6136 73.7911 20.9378 73.9604 21.2882 74.0586C21.6385 74.1568 22.0069 74.1816 22.3682 74.1313C25.6697 73.9732 31.1338 71.1749 38.0341 64.6455C38.2643 64.4012 38.5683 64.2318 38.9038 64.1608C39.2393 64.0899 39.5896 64.121 39.9058 64.2497C40.222 64.3785 40.4883 64.5986 40.6677 64.8793C40.8471 65.1599 40.9305 65.4872 40.9065 65.8155C40.7249 74.9218 42.7553 81.6251 45.3471 84.6921C45.8192 85.3889 46.5514 85.8866 47.394 86.0834C47.7259 86.0691 48.0494 85.9783 48.3368 85.8186C48.6242 85.659 48.8671 85.4352 49.0448 85.1664C51.1743 82.8108 52.8251 76.9138 53.0232 66.5111C52.9827 66.1453 53.0766 65.7774 53.2888 65.4708C53.501 65.1642 53.8182 64.938 54.1858 64.8313C54.5534 64.7246 54.9483 64.7439 55.3026 64.8861C55.6568 65.0282 55.9483 65.2842 56.1267 65.6099C61.4422 73.1985 66.7907 76.6767 70.538 77.309C71.0305 77.424 71.5423 77.4413 72.0419 77.3597C72.5416 77.2781 73.0185 77.0995 73.4434 76.8348C73.7891 76.5385 74.0606 76.1715 74.2378 75.7609C74.415 75.3504 74.4933 74.9068 74.4669 74.4633C74.4669 71.2065 71.9577 66.0368 65.2885 59.6813C65.1285 59.5312 65.0021 59.3514 64.917 59.153C64.8318 58.9546 64.7898 58.7417 64.7933 58.5272C64.7933 58.1079 64.9672 57.7058 65.2768 57.4093C65.5864 57.1128 66.0063 56.9463 66.4441 56.9463C76.0846 57.0569 82.9519 56.2032 86.2535 54.7329C87.1614 54.3219 87.6566 53.974 87.7062 53.6895C87.7557 53.4049 87.4916 52.9939 86.6827 52.4089Z" fill="#FECC00"/>
<path fill-rule="evenodd" clip-rule="evenodd" d="M66.2459 49.7845C65.0078 48.7885 62.0034 47.6186 56.886 46.4012C56.7606 46.369 56.6446 46.3094 56.5473 46.2271C56.4499 46.1448 56.3737 46.0421 56.3247 45.9269C56.2601 45.7381 56.2738 45.5326 56.3629 45.3531C56.452 45.1736 56.6097 45.0338 56.8034 44.9626C60.9799 43.5397 63.4066 41.358 64.0504 39.6031C64.1848 39.362 64.2633 39.0959 64.2804 38.823C64.2975 38.5501 64.2528 38.2769 64.1494 38.0221C64.0233 37.8344 63.8457 37.6835 63.6361 37.5859C63.4265 37.4883 63.1929 37.4478 62.9609 37.4688C61.3101 37.3898 58.2561 38.5913 54.1127 42.0378C53.9804 42.153 53.8114 42.222 53.633 42.2336C53.4546 42.2452 53.2774 42.1986 53.1302 42.1016C52.9829 42.0045 52.8742 41.8626 52.8218 41.6989C52.7694 41.5352 52.7764 41.3593 52.8416 41.1999C54.4558 37.9851 54.9031 34.3463 54.1127 30.8604C53.9895 30.3391 53.6652 29.8817 53.2047 29.5798C53.0171 29.5145 52.8142 29.5006 52.6188 29.5397C52.4234 29.5788 52.2433 29.6694 52.0987 29.8011C50.646 30.7497 48.7971 33.6429 47.0143 39.2869C46.9611 39.4666 46.8444 39.6231 46.6841 39.7296C46.5067 39.8359 46.2924 39.8706 46.0883 39.8262C45.8842 39.7818 45.7067 39.6618 45.5946 39.4924C43.1019 35.8088 40.6423 33.9907 38.9915 33.6587C38.7798 33.572 38.5481 33.5398 38.3193 33.5654C38.0906 33.5909 37.8729 33.6733 37.6877 33.8044C37.5025 33.9354 37.3563 34.1105 37.2635 34.3124C37.1708 34.5142 37.1348 34.7358 37.1591 34.9551C36.9775 36.6783 38.1001 39.5715 41.2035 43.2551C41.3311 43.4068 41.3958 43.5982 41.3851 43.7926C41.3788 43.8903 41.3525 43.9858 41.3075 44.0737C41.2626 44.1615 41.2 44.24 41.1233 44.3046C41.0466 44.3693 40.9573 44.4188 40.8606 44.4503C40.7639 44.4818 40.6617 44.4947 40.5597 44.4883C35.6074 44.1879 32.4049 44.9626 30.9522 46.0692C30.7729 46.186 30.6194 46.3355 30.5004 46.5091C30.3815 46.6827 30.2994 46.8771 30.2588 47.081C30.2571 47.2668 30.2975 47.4506 30.3773 47.6199C30.4571 47.7891 30.5744 47.9397 30.7211 48.0612C31.8766 49.1837 34.6995 50.1165 39.3877 50.3062C39.5946 50.314 39.7902 50.3992 39.9324 50.5434C40.0058 50.6125 40.0641 50.6949 40.1038 50.7859C40.1436 50.8768 40.1641 50.9744 40.1641 51.073C40.1641 51.1716 40.1436 51.2692 40.1038 51.3601C40.0641 51.451 40.0058 51.5335 39.9324 51.6026C36.7464 54.5274 35.2937 57.0253 35.1782 58.5905C35.146 58.7613 35.1515 58.9368 35.1941 59.1055C35.2367 59.2743 35.3156 59.4327 35.4258 59.5706C35.553 59.6779 35.703 59.7575 35.8655 59.8039C36.0279 59.8503 36.1989 59.8624 36.3667 59.8394C37.9185 59.8394 40.4442 58.464 43.6632 55.4127C43.8175 55.2804 44.0174 55.2072 44.2245 55.2072C44.327 55.2071 44.4285 55.2269 44.5229 55.2654C44.6172 55.3039 44.7025 55.3603 44.7734 55.4312C44.8444 55.5022 44.8996 55.5861 44.9358 55.678C44.9719 55.7699 44.9883 55.8679 44.9838 55.9661C44.9838 60.1872 45.8587 63.3333 47.0638 64.7404C47.2853 65.0583 47.6196 65.2885 48.0048 65.3886C48.1628 65.3832 48.3173 65.3416 48.4551 65.2674C48.593 65.1931 48.7102 65.0883 48.7971 64.9617C49.7711 63.8551 50.5305 61.1042 50.613 56.2664C50.6148 56.1446 50.6473 56.0249 50.7076 55.9176C50.768 55.8102 50.8544 55.7184 50.9597 55.6499C51.0449 55.5937 51.141 55.5544 51.2423 55.5343C51.3436 55.5141 51.4481 55.5137 51.5496 55.5328C51.6512 55.552 51.7476 55.5904 51.8334 55.6458C51.9192 55.7012 51.9926 55.7724 52.0492 55.8554C54.5254 59.3809 57.0015 61.0251 58.7514 61.2939C59.2154 61.3944 59.7021 61.3148 60.105 61.0726C60.2668 60.9346 60.3939 60.7634 60.4768 60.5718C60.5597 60.3801 60.5962 60.173 60.5837 59.9659C60.5837 58.3849 59.4117 56.0451 56.3082 53.0887C56.2315 53.0204 56.1711 52.9369 56.1312 52.8442C56.0913 52.7514 56.0729 52.6514 56.0771 52.5512C56.0814 52.3527 56.1668 52.1637 56.3149 52.0248C56.4631 51.8859 56.6621 51.8081 56.8695 51.8081C59.9586 52.0491 63.0674 51.7272 66.0313 50.8595C66.4605 50.6698 66.6916 50.5117 66.7081 50.3694C66.7246 50.2272 66.5926 50.0691 66.2459 49.7845Z" fill="#C73E20"/>
<path fill-rule="evenodd" clip-rule="evenodd" d="M64.8757 50.1639C64.0529 50.375 63.2139 50.523 62.3666 50.6066C60.5742 50.7941 58.7713 50.8734 56.9685 50.8437H56.8529C56.6062 50.8392 56.361 50.8815 56.1314 50.9684C55.9019 51.0552 55.6927 51.1848 55.5158 51.3496C55.2027 51.6576 55.0103 52.0597 54.971 52.4879C54.963 52.5351 54.963 52.5831 54.971 52.6302C54.9649 52.8699 55.0157 53.1078 55.1196 53.3258C55.2156 53.5497 55.3557 53.7536 55.5323 53.9266C56.6828 54.9836 57.692 56.1731 58.5367 57.468C59.0792 58.2422 59.3877 59.145 59.4282 60.0766C59.4469 60.1706 59.4469 60.2671 59.4282 60.3611H59.3456C59.2036 60.3851 59.0584 60.3851 58.9164 60.3611C57.8662 60.118 56.903 59.6104 56.1266 58.8908C54.904 57.8506 53.8374 56.6536 52.9571 55.3337C52.6771 54.934 52.2443 54.6558 51.752 54.559C51.2603 54.4655 50.75 54.5622 50.3323 54.8278C50.0737 55.001 49.8593 55.228 49.7051 55.4918C49.5634 55.7453 49.4844 56.0265 49.4739 56.3139C49.4762 58.0952 49.3105 59.8731 48.9787 61.6259C48.8407 62.5567 48.5035 63.4501 47.9882 64.2503L47.8727 64.1554C47.1808 63.2114 46.7183 62.131 46.519 60.9935C46.1625 59.3937 46.0019 57.7596 46.0403 56.1241V56.0135C46.0451 55.7772 46.0009 55.5423 45.9102 55.3225C45.8195 55.1027 45.6842 54.9023 45.5121 54.7329C45.1964 54.4316 44.7831 54.242 44.34 54.1954H44.1749C43.9619 54.1947 43.7501 54.2268 43.5476 54.2902H43.4486C43.2262 54.3866 43.0203 54.5145 42.8378 54.6697C41.6613 55.8156 40.3608 56.8384 38.9585 57.7209C38.1666 58.2709 37.2503 58.6338 36.2842 58.7802V58.6695C36.4501 57.6954 36.8577 56.7737 37.4728 55.9819C38.3959 54.6598 39.4761 53.4449 40.6918 52.3615C41.0427 52.0368 41.2496 51.5952 41.2696 51.1283C41.2756 50.8895 41.232 50.6519 41.1413 50.4293C41.0507 50.2068 40.9147 50.0037 40.7413 49.8319C40.4077 49.5069 39.9614 49.3101 39.4867 49.2786C37.755 49.2401 36.0331 49.0174 34.3528 48.6146C33.3175 48.4535 32.3411 48.0458 31.5134 47.4289C31.4634 47.381 31.4192 47.328 31.3814 47.2708C31.4554 47.1694 31.5444 47.0789 31.6455 47.002C32.6319 46.3638 33.7644 45.9625 34.9471 45.8321C36.7822 45.5653 38.6433 45.5017 40.4937 45.6424C40.944 45.6705 41.3898 45.5413 41.7483 45.2787L41.8473 45.1997C42.2188 44.8894 42.4497 44.4528 42.4911 43.9824C42.5105 43.7515 42.4767 43.5195 42.3921 43.3025C42.3239 43.0804 42.2055 42.8753 42.0454 42.7018C40.8793 41.3528 39.8821 39.8777 39.074 38.3067C38.5258 37.3366 38.2473 36.2477 38.2651 35.1448C38.2694 35.0249 38.2974 34.9069 38.3477 34.797C38.4675 34.774 38.591 34.774 38.7108 34.797C39.7311 35.1013 40.656 35.6447 41.4016 36.3779C42.6382 37.5027 43.715 38.7785 44.6041 40.1722C44.8895 40.5698 45.319 40.8515 45.8092 40.9627C46.2988 41.0591 46.8083 40.9683 47.2289 40.7098C47.4002 40.6037 47.551 40.4699 47.6746 40.3145C47.809 40.1437 47.9097 39.9509 47.9717 39.7454C48.6109 37.6639 49.4338 35.6382 50.4314 33.6903C50.925 32.5836 51.6759 31.5995 52.6269 30.8129C52.7424 30.9976 52.8365 31.1937 52.9076 31.3979C53.3048 32.7825 53.3892 34.2324 53.1552 35.6507C52.9148 37.4847 52.4092 39.2779 51.653 40.9785C51.4639 41.4246 51.4639 41.9237 51.653 42.3698C51.7476 42.5898 51.8867 42.7896 52.0624 42.9579C52.238 43.1261 52.4468 43.2594 52.6765 43.35C53.0147 43.4882 53.3883 43.5268 53.7495 43.4606C54.1021 43.3961 54.4283 43.2371 54.6904 43.0022C56.2016 41.6707 57.8626 40.5042 59.6428 39.524C60.6355 38.9232 61.7718 38.575 62.9443 38.5122H63.2085C63.1843 38.7021 63.1343 38.8881 63.0599 39.0656C62.5442 40.0887 61.7661 40.9698 60.7983 41.6267C59.4863 42.5687 58.0265 43.3051 56.4733 43.8085C56.24 43.8857 56.025 44.0065 55.8408 44.1639C55.6566 44.3213 55.5069 44.5122 55.4003 44.7254C55.2095 45.1712 55.2095 45.6709 55.4003 46.1167C55.4953 46.3587 55.6414 46.5793 55.8295 46.7649V46.8439C56.0595 47.0462 56.3369 47.1926 56.6383 47.2708C58.6216 47.7288 60.5778 48.2882 62.4986 48.9466C63.3318 49.2337 64.1381 49.5881 64.9088 50.0058L64.8757 50.1639ZM58.124 45.6108C59.5493 45.0669 60.8928 44.3438 62.1189 43.4606C63.4033 42.5741 64.4222 41.3802 65.0738 39.9983C65.2431 39.6168 65.3435 39.2105 65.371 38.7968C65.4122 38.3767 65.3262 37.9541 65.1234 37.5795C64.9145 37.201 64.5848 36.8963 64.1824 36.7099C63.8136 36.5505 63.4149 36.4644 63.0104 36.457C61.4472 36.4966 59.922 36.9272 58.5863 37.7059C57.0807 38.5187 55.6551 39.4606 54.3272 40.5201C54.9117 38.9869 55.3159 37.3961 55.5323 35.7772C55.7903 34.0433 55.6666 32.2769 55.1691 30.5916C55.0241 30.2173 54.8417 29.8573 54.6244 29.5166C54.3947 29.1811 54.0831 28.9043 53.7165 28.7103H53.6174C53.2589 28.561 52.8608 28.5223 52.4784 28.5996C52.1146 28.6795 51.7718 28.8302 51.4714 29.0423C50.2124 30.02 49.2162 31.2723 48.566 32.6943C47.6226 34.5483 46.8387 36.4729 46.2219 38.449C45.2657 37.1137 44.1585 35.8836 42.9203 34.7812C41.8861 33.7849 40.6012 33.0607 39.1896 32.6785C38.8285 32.6253 38.4611 32.6253 38.1 32.6785H37.968C37.6288 32.7271 37.3064 32.8517 37.027 33.0421C36.712 33.2684 36.4621 33.5676 36.3007 33.9116C36.1569 34.2388 36.0678 34.5856 36.0366 34.9393C35.982 36.4114 36.3291 37.8717 37.0435 39.1762C37.8151 40.7104 38.7619 42.1579 39.8664 43.4923C38.0792 43.3955 36.2864 43.4803 34.5178 43.7452C32.9748 43.9323 31.5021 44.4748 30.2258 45.3262C29.9456 45.537 29.7007 45.7876 29.4995 46.0692C29.3097 46.3501 29.191 46.6695 29.1528 47.002C29.1205 47.3554 29.189 47.7106 29.3509 48.0296C29.5037 48.3265 29.7042 48.5986 29.9452 48.8359C31.013 49.7366 32.3025 50.3623 33.6925 50.654C35.3145 51.0455 36.9737 51.2786 38.6448 51.3496C37.5083 52.4057 36.4953 53.5773 35.6239 54.8436C34.8022 55.9386 34.2698 57.2079 34.0721 58.543C34.0288 58.8367 34.0288 59.1347 34.0721 59.4284C34.1571 59.7506 34.3213 60.0487 34.5509 60.2979C34.7897 60.5355 35.0925 60.7051 35.4258 60.788C35.7213 60.8649 36.0286 60.8916 36.3337 60.867C37.6954 60.7238 38.9965 60.2504 40.114 59.4916C41.4324 58.6627 42.6651 57.7151 43.7952 56.6617C43.7967 58.256 43.9738 59.8458 44.3235 61.4046C44.6149 62.8875 45.2651 64.2845 46.2219 65.4834C46.424 65.7362 46.6631 65.9599 46.9317 66.1474C47.2035 66.3349 47.5227 66.4495 47.8562 66.4794C48.2189 66.5178 48.5846 66.4399 48.8962 66.2581C49.1669 66.1113 49.4075 65.9184 49.606 65.689C50.4272 64.6157 50.9652 63.3682 51.1742 62.0528C51.4777 60.4872 51.6543 58.9015 51.7025 57.3099C52.574 58.4756 53.5882 59.5372 54.7234 60.4718C55.8093 61.4287 57.1433 62.0893 58.5863 62.3848C58.9582 62.4397 59.3368 62.4397 59.7088 62.3848C60.0977 62.3195 60.4652 62.1679 60.7818 61.9421C61.0869 61.7075 61.3254 61.403 61.4751 61.0567C61.602 60.727 61.6744 60.3803 61.6897 60.0291C61.6259 58.7105 61.1926 57.4326 60.4351 56.3297C59.635 55.0951 58.6937 53.9498 57.6288 52.9148C59.2833 52.922 60.9368 52.8375 62.5812 52.6618C63.9242 52.556 65.243 52.2576 66.4935 51.7765C66.7313 51.6711 66.958 51.5441 67.1703 51.3971C67.4868 51.1896 67.706 50.8719 67.7811 50.5117C67.8121 50.324 67.8001 50.132 67.7459 49.9491C67.6918 49.7662 67.5968 49.5968 67.4675 49.4525C67.3068 49.2644 67.124 49.0946 66.9227 48.9466C65.8002 48.1463 64.5521 47.5219 63.225 47.0969C61.8878 46.6384 60.1875 46.1325 58.124 45.6108Z" fill="#33001A"/>
</g>
<defs>
<clipPath id="clip0_167_1018">
<rect width="97" height="95" fill="white"/>
</clipPath>
</defs>
</svg>
